<svg width="56" height="56" viewBox="0 0 56 56" fill="none" xmlns="http://www.w3.org/2000/svg">
<rect width="56" height="56" rx="28" fill="#36A54F"/>
<path d="M37.1744 25.6394C36.8209 25.27 36.4553 24.8894 36.3175 24.5547C36.19 24.2481 36.1825 23.74 36.175 23.2478C36.1609 22.3328 36.1459 21.2959 35.425 20.575C34.7041 19.8541 33.6672 19.8391 32.7522 19.825C32.26 19.8175 31.7519 19.81 31.4453 19.6825C31.1116 19.5447 30.73 19.1791 30.3606 18.8256C29.7137 18.2041 28.9788 17.5 28 17.5C27.0212 17.5 26.2872 18.2041 25.6394 18.8256C25.27 19.1791 24.8894 19.5447 24.5547 19.6825C24.25 19.81 23.74 19.8175 23.2478 19.825C22.3328 19.8391 21.2959 19.8541 20.575 20.575C19.8541 21.2959 19.8438 22.3328 19.825 23.2478C19.8175 23.74 19.81 24.2481 19.6825 24.5547C19.5447 24.8884 19.1791 25.27 18.8256 25.6394C18.2041 26.2863 17.5 27.0212 17.5 28C17.5 28.9788 18.2041 29.7128 18.8256 30.3606C19.1791 30.73 19.5447 31.1106 19.6825 31.4453C19.81 31.7519 19.8175 32.26 19.825 32.7522C19.8391 33.6672 19.8541 34.7041 20.575 35.425C21.2959 36.1459 22.3328 36.1609 23.2478 36.175C23.74 36.1825 24.2481 36.19 24.5547 36.3175C24.8884 36.4553 25.27 36.8209 25.6394 37.1744C26.2863 37.7959 27.0212 38.5 28 38.5C28.9788 38.5 29.7128 37.7959 30.3606 37.1744C30.73 36.8209 31.1106 36.4553 31.4453 36.3175C31.7519 36.19 32.26 36.1825 32.7522 36.175C33.6672 36.1609 34.7041 36.1459 35.425 35.425C36.1459 34.7041 36.1609 33.6672 36.175 32.7522C36.1825 32.26 36.19 31.7519 36.3175 31.4453C36.4553 31.1116 36.8209 30.73 37.1744 30.3606C37.7959 29.7137 38.5 28.9788 38.5 28C38.5 27.0212 37.7959 26.2872 37.1744 25.6394ZM32.2806 26.2806L27.0306 31.5306C26.961 31.6004 26.8783 31.6557 26.7872 31.6934C26.6962 31.7312 26.5986 31.7506 26.5 31.7506C26.4014 31.7506 26.3038 31.7312 26.2128 31.6934C26.1217 31.6557 26.039 31.6004 25.9694 31.5306L23.7194 29.2806C23.6497 29.2109 23.5944 29.1282 23.5567 29.0372C23.519 28.9461 23.4996 28.8485 23.4996 28.75C23.4996 28.6515 23.519 28.5539 23.5567 28.4628C23.5944 28.3718 23.6497 28.2891 23.7194 28.2194C23.8601 28.0786 24.051 27.9996 24.25 27.9996C24.3485 27.9996 24.4461 28.019 24.5372 28.0567C24.6282 28.0944 24.7109 28.1497 24.7806 28.2194L26.5 29.9397L31.2194 25.2194C31.2891 25.1497 31.3718 25.0944 31.4628 25.0567C31.5539 25.019 31.6515 24.9996 31.75 24.9996C31.8485 24.9996 31.9461 25.019 32.0372 25.0567C32.1282 25.0944 32.2109 25.1497 32.2806 25.2194C32.3503 25.2891 32.4056 25.3718 32.4433 25.4628C32.481 25.5539 32.5004 25.6515 32.5004 25.75C32.5004 25.8485 32.481 25.9461 32.4433 26.0372C32.4056 26.1282 32.3503 26.2109 32.2806 26.2806Z" fill="white"/>
</svg>
