<svg width="56" height="56" viewBox="0 0 56 56" fill="none" xmlns="http://www.w3.org/2000/svg">
<rect width="56" height="56" rx="28" fill="#FEA36B"/>
<path d="M21.7056 17.5C21.6745 17.4997 21.6438 17.5072 21.6163 17.5217C21.5888 17.5362 21.5653 17.5574 21.548 17.5832C21.5307 17.6091 21.5201 17.6388 21.5172 17.6698C21.5143 17.7008 21.5191 17.732 21.5312 17.7606L21.639 18.0152L23.5468 22.4636C23.5598 22.4939 23.5805 22.5202 23.6069 22.5399C23.6332 22.5596 23.6643 22.572 23.697 22.5759C23.7297 22.5798 23.7628 22.575 23.7931 22.5621C23.8233 22.5491 23.8496 22.5284 23.8693 22.502L27.3906 17.8C27.4115 17.7722 27.4242 17.739 27.4273 17.7043C27.4305 17.6697 27.4239 17.6348 27.4083 17.6037C27.3927 17.5725 27.3688 17.5463 27.3392 17.528C27.3095 17.5097 27.2754 17.5 27.2406 17.5H21.7056ZM35.6842 18.7216L33.7492 23.2389C33.737 23.2674 33.7321 23.2985 33.7349 23.3294C33.7377 23.3603 33.7481 23.39 33.7652 23.4159C33.7823 23.4417 33.8055 23.463 33.8328 23.4776C33.8602 23.4923 33.8907 23.5 33.9217 23.5H38.6561C38.6895 23.5 38.7223 23.4911 38.7511 23.4742C38.78 23.4572 38.8037 23.4329 38.82 23.4037C38.8362 23.3745 38.8444 23.3414 38.8436 23.308C38.8428 23.2746 38.8331 23.242 38.8154 23.2136L36.0156 18.6967C35.9975 18.6676 35.9718 18.6441 35.9413 18.6286C35.9107 18.6131 35.8765 18.6062 35.8424 18.6088C35.8082 18.6113 35.7754 18.6232 35.7475 18.6431C35.7196 18.663 35.6977 18.6901 35.6842 18.7216ZM19.9843 18.6986L17.1854 23.2136C17.1678 23.242 17.1581 23.2746 17.1573 23.308C17.1565 23.3414 17.1646 23.3745 17.1809 23.4037C17.1971 23.4329 17.2209 23.4572 17.2497 23.4742C17.2786 23.4911 17.3114 23.5 17.3448 23.5H22.0792C22.1102 23.5 22.1408 23.4922 22.1681 23.4775C22.1954 23.4628 22.2186 23.4415 22.2356 23.4155C22.2527 23.3896 22.263 23.3599 22.2657 23.329C22.2685 23.2981 22.2635 23.267 22.2512 23.2384L20.3125 18.7234C20.2986 18.6928 20.2767 18.6664 20.2492 18.6471C20.2216 18.6278 20.1893 18.6163 20.1558 18.6137C20.1222 18.6112 20.0886 18.6177 20.0584 18.6327C20.0283 18.6476 20.0027 18.6704 19.9843 18.6986ZM34.4345 17.5H28.554C28.5371 17.4999 28.5204 17.5045 28.5059 17.5134C28.4915 17.5223 28.4798 17.535 28.4722 17.5502C28.4646 17.5653 28.4613 17.5823 28.4629 17.5992C28.4644 17.6161 28.4707 17.6323 28.4809 17.6458L32.2272 22.6361C32.2367 22.6489 32.2495 22.659 32.2642 22.6653C32.2789 22.6716 32.295 22.6739 32.3109 22.672C32.3267 22.6701 32.3418 22.6641 32.3546 22.6545C32.3674 22.6449 32.3775 22.6321 32.3837 22.6174L34.3562 18.0156L34.5156 17.6247C34.5212 17.6113 34.5235 17.5967 34.5222 17.5822C34.521 17.5677 34.5162 17.5537 34.5084 17.5415C34.5006 17.5292 34.4899 17.519 34.4773 17.5118C34.4646 17.5046 34.4504 17.5005 34.4359 17.5H34.4345ZM27.2031 37L23.0111 25.1177C22.9988 25.0832 22.9761 25.0533 22.9461 25.0322C22.9161 25.0112 22.8804 24.9999 22.8437 25H17.2047C17.172 24.9999 17.14 25.009 17.1122 25.0262C17.0844 25.0435 17.0621 25.0681 17.0477 25.0974C17.0333 25.1268 17.0274 25.1595 17.0307 25.192C17.034 25.2245 17.0464 25.2554 17.0664 25.2813L27.1914 38.3974C27.2257 38.4417 27.2745 38.4725 27.3294 38.4843C27.3842 38.4961 27.4414 38.488 27.4909 38.4616C27.5407 38.4354 27.5793 38.3922 27.5999 38.3399C27.6205 38.2876 27.6215 38.2296 27.6029 38.1766L27.2031 37ZM38.7953 25H33.1562C33.1198 25 33.0842 25.0113 33.0545 25.0324C33.0248 25.0535 33.0023 25.0833 32.9903 25.1177L28.3872 38.1564C28.3678 38.2112 28.3686 38.271 28.3894 38.3252C28.4102 38.3794 28.4496 38.4244 28.5006 38.4522C28.5516 38.4798 28.6107 38.4884 28.6675 38.4765C28.7242 38.4646 28.7749 38.4329 28.8104 38.387L38.9336 25.2813C38.9536 25.2554 38.966 25.2245 38.9693 25.192C38.9726 25.1595 38.9667 25.1268 38.9523 25.0974C38.9379 25.0681 38.9155 25.0435 38.8877 25.0262C38.86 25.009 38.8279 24.9999 38.7953 25ZM28.15 19.6999L30.775 23.2C30.7959 23.2279 30.8086 23.261 30.8117 23.2957C30.8148 23.3303 30.8082 23.3652 30.7927 23.3964C30.7771 23.4275 30.7532 23.4537 30.7235 23.472C30.6939 23.4903 30.6598 23.5 30.625 23.5H25.375C25.3401 23.5 25.306 23.4903 25.2764 23.472C25.2468 23.4537 25.2228 23.4275 25.2073 23.3964C25.1917 23.3652 25.1851 23.3303 25.1882 23.2957C25.1914 23.261 25.2041 23.2279 25.225 23.2L27.85 19.6999C27.8674 19.6766 27.8901 19.6577 27.9161 19.6446C27.9422 19.6316 27.9709 19.6249 28 19.6249C28.0291 19.6249 28.0578 19.6316 28.0838 19.6446C28.1099 19.6577 28.1325 19.6766 28.15 19.6999ZM27.8218 34.2456L24.6484 25.2499C24.6384 25.2216 24.6354 25.1913 24.6395 25.1617C24.6437 25.132 24.6549 25.1037 24.6722 25.0792C24.6895 25.0548 24.7124 25.0348 24.739 25.021C24.7656 25.0072 24.7952 25 24.8251 25H31.1748C31.2048 25 31.2343 25.0072 31.2609 25.021C31.2875 25.0348 31.3105 25.0548 31.3278 25.0792C31.3451 25.1037 31.3563 25.132 31.3604 25.1617C31.3645 25.1913 31.3615 25.2216 31.3515 25.2499L28.1767 34.2456C28.1637 34.2822 28.1398 34.3138 28.1082 34.3361C28.0765 34.3585 28.0387 34.3705 28 34.3705C27.9612 34.3705 27.9234 34.3585 27.8918 34.3361C27.8601 34.3138 27.8362 34.2822 27.8233 34.2456H27.8218Z" fill="white"/>
</svg>
