<svg width="1920" height="1129" viewBox="0 0 1920 1129" fill="none" xmlns="http://www.w3.org/2000/svg">
<path opacity="0.06" d="M-199.212 0H-254.434V56.404M-199.212 0V56.404M-199.212 0H-143.99M-199.212 56.404H-254.434M-199.212 56.404V112.808M-199.212 56.404H-143.99M-254.434 56.404V112.808M-199.212 112.808H-254.434M-199.212 112.808V169.212M-199.212 112.808H-143.99M-254.434 112.808V169.212M-199.212 169.212H-254.434M-199.212 169.212V225.616M-199.212 169.212H-143.99M-254.434 169.212V225.616M-199.212 225.616H-254.434M-199.212 225.616V282.02M-199.212 225.616H-143.99M-254.434 225.616V282.02M-199.212 282.02H-254.434M-199.212 282.02V338.424M-199.212 282.02H-143.99M-254.434 282.02V338.424M-199.212 338.424H-254.434M-199.212 338.424V394.828M-199.212 338.424H-143.99M-254.434 338.424V394.828M-199.212 394.828H-254.434M-199.212 394.828V451.232M-199.212 394.828H-143.99M-254.434 394.828V451.232M-199.212 451.232H-254.434M-199.212 451.232V507.636M-199.212 451.232H-143.99M-254.434 451.232V507.636M-199.212 507.636H-254.434M-199.212 507.636V564.04M-199.212 507.636H-143.99M-254.434 507.636V564.04M-199.212 564.04H-254.434M-199.212 564.04V620.444M-199.212 564.04H-143.99M-254.434 564.04V620.444M-199.212 620.444H-254.434M-199.212 620.444V676.848M-199.212 620.444H-143.99M-254.434 620.444V676.848M-199.212 676.848H-254.434M-199.212 676.848V733.252M-199.212 676.848H-143.99M-254.434 676.848V733.252M-199.212 733.252H-254.434M-199.212 733.252V789.656M-199.212 733.252H-143.99M-254.434 733.252V789.656M-199.212 789.656H-254.434M-199.212 789.656V846.059M-199.212 789.656H-143.99M-254.434 789.656V846.059M-199.212 846.059H-254.434M-199.212 846.059V902.463M-199.212 846.059H-143.99M-254.434 846.059V902.463M-199.212 902.463H-254.434M-199.212 902.463V958.867M-199.212 902.463H-143.99M-254.434 902.463V958.867M-199.212 958.867H-254.434M-199.212 958.867V1015.27M-199.212 958.867H-143.99M-254.434 958.867V1015.27M-199.212 1015.27H-254.434M-199.212 1015.27V1071.68M-199.212 1015.27H-143.99M-254.434 1015.27V1071.68M-199.212 1071.68H-254.434M-199.212 1071.68V1128.08M-199.212 1071.68H-143.99M-254.434 1071.68V1128.08H-199.212M-199.212 1128.08H-143.99M-143.99 0V56.404M-143.99 0H-88.7687M-143.99 56.404V112.808M-143.99 56.404H-88.7687M-143.99 112.808V169.212M-143.99 112.808H-88.7687M-143.99 169.212V225.616M-143.99 169.212H-88.7687M-143.99 225.616V282.02M-143.99 225.616H-88.7687M-143.99 282.02V338.424M-143.99 282.02H-88.7687M-143.99 338.424V394.828M-143.99 338.424H-88.7687M-143.99 394.828V451.232M-143.99 394.828H-88.7687M-143.99 451.232V507.636M-143.99 451.232H-88.7687M-143.99 507.636V564.04M-143.99 507.636H-88.7687M-143.99 564.04V620.444M-143.99 564.04H-88.7687M-143.99 620.444V676.848M-143.99 620.444H-88.7687M-143.99 676.848V733.252M-143.99 676.848H-88.7687M-143.99 733.252V789.656M-143.99 733.252H-88.7687M-143.99 789.656V846.059M-143.99 789.656H-88.7687M-143.99 846.059V902.463M-143.99 846.059H-88.7687M-143.99 902.463V958.867M-143.99 902.463H-88.7687M-143.99 958.867V1015.27M-143.99 958.867H-88.7687M-143.99 1015.27V1071.68M-143.99 1015.27H-88.7687M-143.99 1071.68V1128.08M-143.99 1071.68H-88.7687M-143.99 1128.08H-88.7687M-88.7687 0V56.404M-88.7687 0H-33.547M-88.7687 56.404V112.808M-88.7687 56.404H-33.547M-88.7687 112.808V169.212M-88.7687 112.808H-33.547M-88.7687 169.212V225.616M-88.7687 169.212H-33.547M-88.7687 225.616V282.02M-88.7687 225.616H-33.547M-88.7687 282.02V338.424M-88.7687 282.02H-33.547M-88.7687 338.424V394.828M-88.7687 338.424H-33.547M-88.7687 394.828V451.232M-88.7687 394.828H-33.547M-88.7687 451.232V507.636M-88.7687 451.232H-33.547M-88.7687 507.636V564.04M-88.7687 507.636H-33.547M-88.7687 564.04V620.444M-88.7687 564.04H-33.547M-88.7687 620.444V676.848M-88.7687 620.444H-33.547M-88.7687 676.848V733.252M-88.7687 676.848H-33.547M-88.7687 733.252V789.656M-88.7687 733.252H-33.547M-88.7687 789.656V846.059M-88.7687 789.656H-33.547M-88.7687 846.059V902.463M-88.7687 846.059H-33.547M-88.7687 902.463V958.867M-88.7687 902.463H-33.547M-88.7687 958.867V1015.27M-88.7687 958.867H-33.547M-88.7687 1015.27V1071.68M-88.7687 1015.27H-33.547M-88.7687 1071.68V1128.08M-88.7687 1071.68H-33.547M-88.7687 1128.08H-33.547M-33.547 0V56.404M-33.547 0H21.6747M-33.547 56.404V112.808M-33.547 56.404H21.6747M-33.547 112.808V169.212M-33.547 112.808H21.6747M-33.547 169.212V225.616M-33.547 169.212H21.6747M-33.547 225.616V282.02M-33.547 225.616H21.6747M-33.547 282.02V338.424M-33.547 282.02H21.6747M-33.547 338.424V394.828M-33.547 338.424H21.6747M-33.547 394.828V451.232M-33.547 394.828H21.6747M-33.547 451.232V507.636M-33.547 451.232H21.6747M-33.547 507.636V564.04M-33.547 507.636H21.6747M-33.547 564.04V620.444M-33.547 564.04H21.6747M-33.547 620.444V676.848M-33.547 620.444H21.6747M-33.547 676.848V733.252M-33.547 676.848H21.6747M-33.547 733.252V789.656M-33.547 733.252H21.6747M-33.547 789.656V846.059M-33.547 789.656H21.6747M-33.547 846.059V902.463M-33.547 846.059H21.6747M-33.547 902.463V958.867M-33.547 902.463H21.6747M-33.547 958.867V1015.27M-33.547 958.867H21.6747M-33.547 1015.27V1071.68M-33.547 1015.27H21.6747M-33.547 1071.68V1128.08M-33.547 1071.68H21.6747M-33.547 1128.08H21.6747M21.6747 0V56.404M21.6747 0H76.8964M21.6747 56.404V112.808M21.6747 56.404H76.8964M21.6747 112.808V169.212M21.6747 112.808H76.8964M21.6747 169.212V225.616M21.6747 169.212H76.8964M21.6747 225.616V282.02M21.6747 225.616H76.8964M21.6747 282.02V338.424M21.6747 282.02H76.8964M21.6747 338.424V394.828M21.6747 338.424H76.8964M21.6747 394.828V451.232M21.6747 394.828H76.8964M21.6747 451.232V507.636M21.6747 451.232H76.8964M21.6747 507.636V564.04M21.6747 507.636H76.8964M21.6747 564.04V620.444M21.6747 564.04H76.8964M21.6747 620.444V676.848M21.6747 620.444H76.8964M21.6747 676.848V733.252M21.6747 676.848H76.8964M21.6747 733.252V789.656M21.6747 733.252H76.8964M21.6747 789.656V846.059M21.6747 789.656H76.8964M21.6747 846.059V902.463M21.6747 846.059H76.8964M21.6747 902.463V958.867M21.6747 902.463H76.8964M21.6747 958.867V1015.27M21.6747 958.867H76.8964M21.6747 1015.27V1071.68M21.6747 1015.27H76.8964M21.6747 1071.68V1128.08M21.6747 1071.68H76.8964M21.6747 1128.08H76.8964M76.8964 0V56.404M76.8964 0H132.118M76.8964 56.404V112.808M76.8964 56.404H132.118M76.8964 112.808V169.212M76.8964 112.808H132.118M76.8964 169.212V225.616M76.8964 169.212H132.118M76.8964 225.616V282.02M76.8964 225.616H132.118M76.8964 282.02V338.424M76.8964 282.02H132.118M76.8964 338.424V394.828M76.8964 338.424H132.118M76.8964 394.828V451.232M76.8964 394.828H132.118M76.8964 451.232V507.636M76.8964 451.232H132.118M76.8964 507.636V564.04M76.8964 507.636H132.118M76.8964 564.04V620.444M76.8964 564.04H132.118M76.8964 620.444V676.848M76.8964 620.444H132.118M76.8964 676.848V733.252M76.8964 676.848H132.118M76.8964 733.252V789.656M76.8964 733.252H132.118M76.8964 789.656V846.059M76.8964 789.656H132.118M76.8964 846.059V902.463M76.8964 846.059H132.118M76.8964 902.463V958.867M76.8964 902.463H132.118M76.8964 958.867V1015.27M76.8964 958.867H132.118M76.8964 1015.27V1071.68M76.8964 1015.27H132.118M76.8964 1071.68V1128.08M76.8964 1071.68H132.118M76.8964 1128.08H132.118M132.118 0V56.404M132.118 0H187.34M132.118 56.404V112.808M132.118 56.404H187.34M132.118 112.808V169.212M132.118 112.808H187.34M132.118 169.212V225.616M132.118 169.212H187.34M132.118 225.616V282.02M132.118 225.616H187.34M132.118 282.02V338.424M132.118 282.02H187.34M132.118 338.424V394.828M132.118 338.424H187.34M132.118 394.828V451.232M132.118 394.828H187.34M132.118 451.232V507.636M132.118 451.232H187.34M132.118 507.636V564.04M132.118 507.636H187.34M132.118 564.04V620.444M132.118 564.04H187.34M132.118 620.444V676.848M132.118 620.444H187.34M132.118 676.848V733.252M132.118 676.848H187.34M132.118 733.252V789.656M132.118 733.252H187.34M132.118 789.656V846.059M132.118 789.656H187.34M132.118 846.059V902.463M132.118 846.059H187.34M132.118 902.463V958.867M132.118 902.463H187.34M132.118 958.867V1015.27M132.118 958.867H187.34M132.118 1015.27V1071.68M132.118 1015.27H187.34M132.118 1071.68V1128.08M132.118 1071.68H187.34M132.118 1128.08H187.34M187.34 0V56.404M187.34 0H242.561M187.34 56.404V112.808M187.34 56.404H242.561M187.34 112.808V169.212M187.34 112.808H242.561M187.34 169.212V225.616M187.34 169.212H242.561M187.34 225.616V282.02M187.34 225.616H242.561M187.34 282.02V338.424M187.34 282.02H242.561M187.34 338.424V394.828M187.34 338.424H242.561M187.34 394.828V451.232M187.34 394.828H242.561M187.34 451.232V507.636M187.34 451.232H242.561M187.34 507.636V564.04M187.34 507.636H242.561M187.34 564.04V620.444M187.34 564.04H242.561M187.34 620.444V676.848M187.34 620.444H242.561M187.34 676.848V733.252M187.34 676.848H242.561M187.34 733.252V789.656M187.34 733.252H242.561M187.34 789.656V846.059M187.34 789.656H242.561M187.34 846.059V902.463M187.34 846.059H242.561M187.34 902.463V958.867M187.34 902.463H242.561M187.34 958.867V1015.27M187.34 958.867H242.561M187.34 1015.27V1071.68M187.34 1015.27H242.561M187.34 1071.68V1128.08M187.34 1071.68H242.561M187.34 1128.08H242.561M242.561 0V56.404M242.561 0H297.783M242.561 56.404V112.808M242.561 56.404H297.783M242.561 112.808V169.212M242.561 112.808H297.783M242.561 169.212V225.616M242.561 169.212H297.783M242.561 225.616V282.02M242.561 225.616H297.783M242.561 282.02V338.424M242.561 282.02H297.783M242.561 338.424V394.828M242.561 338.424H297.783M242.561 394.828V451.232M242.561 394.828H297.783M242.561 451.232V507.636M242.561 451.232H297.783M242.561 507.636V564.04M242.561 507.636H297.783M242.561 564.04V620.444M242.561 564.04H297.783M242.561 620.444V676.848M242.561 620.444H297.783M242.561 676.848V733.252M242.561 676.848H297.783M242.561 733.252V789.656M242.561 733.252H297.783M242.561 789.656V846.059M242.561 789.656H297.783M242.561 846.059V902.463M242.561 846.059H297.783M242.561 902.463V958.867M242.561 902.463H297.783M242.561 958.867V1015.27M242.561 958.867H297.783M242.561 1015.27V1071.68M242.561 1015.27H297.783M242.561 1071.68V1128.08M242.561 1071.68H297.783M242.561 1128.08H297.783M297.783 0V56.404M297.783 0H353.005M297.783 56.404V112.808M297.783 56.404H353.005M297.783 112.808V169.212M297.783 112.808H353.005M297.783 169.212V225.616M297.783 169.212H353.005M297.783 225.616V282.02M297.783 225.616H353.005M297.783 282.02V338.424M297.783 282.02H353.005M297.783 338.424V394.828M297.783 338.424H353.005M297.783 394.828V451.232M297.783 394.828H353.005M297.783 451.232V507.636M297.783 451.232H353.005M297.783 507.636V564.04M297.783 507.636H353.005M297.783 564.04V620.444M297.783 564.04H353.005M297.783 620.444V676.848M297.783 620.444H353.005M297.783 676.848V733.252M297.783 676.848H353.005M297.783 733.252V789.656M297.783 733.252H353.005M297.783 789.656V846.059M297.783 789.656H353.005M297.783 846.059V902.463M297.783 846.059H353.005M297.783 902.463V958.867M297.783 902.463H353.005M297.783 958.867V1015.27M297.783 958.867H353.005M297.783 1015.27V1071.68M297.783 1015.27H353.005M297.783 1071.68V1128.08M297.783 1071.68H353.005M297.783 1128.08H353.005M353.005 0V56.404M353.005 0H408.227M353.005 56.404V112.808M353.005 56.404H408.227M353.005 112.808V169.212M353.005 112.808H408.227M353.005 169.212V225.616M353.005 169.212H408.227M353.005 225.616V282.02M353.005 225.616H408.227M353.005 282.02V338.424M353.005 282.02H408.227M353.005 338.424V394.828M353.005 338.424H408.227M353.005 394.828V451.232M353.005 394.828H408.227M353.005 451.232V507.636M353.005 451.232H408.227M353.005 507.636V564.04M353.005 507.636H408.227M353.005 564.04V620.444M353.005 564.04H408.227M353.005 620.444V676.848M353.005 620.444H408.227M353.005 676.848V733.252M353.005 676.848H408.227M353.005 733.252V789.656M353.005 733.252H408.227M353.005 789.656V846.059M353.005 789.656H408.227M353.005 846.059V902.463M353.005 846.059H408.227M353.005 902.463V958.867M353.005 902.463H408.227M353.005 958.867V1015.27M353.005 958.867H408.227M353.005 1015.27V1071.68M353.005 1015.27H408.227M353.005 1071.68V1128.08M353.005 1071.68H408.227M353.005 1128.08H408.227M408.227 0V56.404M408.227 0H463.448M408.227 56.404V112.808M408.227 56.404H463.448M408.227 112.808V169.212M408.227 112.808H463.448M408.227 169.212V225.616M408.227 169.212H463.448M408.227 225.616V282.02M408.227 225.616H463.448M408.227 282.02V338.424M408.227 282.02H463.448M408.227 338.424V394.828M408.227 338.424H463.448M408.227 394.828V451.232M408.227 394.828H463.448M408.227 451.232V507.636M408.227 451.232H463.448M408.227 507.636V564.04M408.227 507.636H463.448M408.227 564.04V620.444M408.227 564.04H463.448M408.227 620.444V676.848M408.227 620.444H463.448M408.227 676.848V733.252M408.227 676.848H463.448M408.227 733.252V789.656M408.227 733.252H463.448M408.227 789.656V846.059M408.227 789.656H463.448M408.227 846.059V902.463M408.227 846.059H463.448M408.227 902.463V958.867M408.227 902.463H463.448M408.227 958.867V1015.27M408.227 958.867H463.448M408.227 1015.27V1071.68M408.227 1015.27H463.448M408.227 1071.68V1128.08M408.227 1071.68H463.448M408.227 1128.08H463.448M463.448 0V56.404M463.448 0H518.67M463.448 56.404V112.808M463.448 56.404H518.67M463.448 112.808V169.212M463.448 112.808H518.67M463.448 169.212V225.616M463.448 169.212H518.67M463.448 225.616V282.02M463.448 225.616H518.67M463.448 282.02V338.424M463.448 282.02H518.67M463.448 338.424V394.828M463.448 338.424H518.67M463.448 394.828V451.232M463.448 394.828H518.67M463.448 451.232V507.636M463.448 451.232H518.67M463.448 507.636V564.04M463.448 507.636H518.67M463.448 564.04V620.444M463.448 564.04H518.67M463.448 620.444V676.848M463.448 620.444H518.67M463.448 676.848V733.252M463.448 676.848H518.67M463.448 733.252V789.656M463.448 733.252H518.67M463.448 789.656V846.059M463.448 789.656H518.67M463.448 846.059V902.463M463.448 846.059H518.67M463.448 902.463V958.867M463.448 902.463H518.67M463.448 958.867V1015.27M463.448 958.867H518.67M463.448 1015.27V1071.68M463.448 1015.27H518.67M463.448 1071.68V1128.08M463.448 1071.68H518.67M463.448 1128.08H518.67M518.67 0V56.404M518.67 0H573.892M518.67 56.404V112.808M518.67 56.404H573.892M518.67 112.808V169.212M518.67 112.808H573.892M518.67 169.212V225.616M518.67 169.212H573.892M518.67 225.616V282.02M518.67 225.616H573.892M518.67 282.02V338.424M518.67 282.02H573.892M518.67 338.424V394.828M518.67 338.424H573.892M518.67 394.828V451.232M518.67 394.828H573.892M518.67 451.232V507.636M518.67 451.232H573.892M518.67 507.636V564.04M518.67 507.636H573.892M518.67 564.04V620.444M518.67 564.04H573.892M518.67 620.444V676.848M518.67 620.444H573.892M518.67 676.848V733.252M518.67 676.848H573.892M518.67 733.252V789.656M518.67 733.252H573.892M518.67 789.656V846.059M518.67 789.656H573.892M518.67 846.059V902.463M518.67 846.059H573.892M518.67 902.463V958.867M518.67 902.463H573.892M518.67 958.867V1015.27M518.67 958.867H573.892M518.67 1015.27V1071.68M518.67 1015.27H573.892M518.67 1071.68V1128.08M518.67 1071.68H573.892M518.67 1128.08H573.892M573.892 0V56.404M573.892 0H629.113M573.892 56.404V112.808M573.892 56.404H629.113M573.892 112.808V169.212M573.892 112.808H629.113M573.892 169.212V225.616M573.892 169.212H629.113M573.892 225.616V282.02M573.892 225.616H629.113M573.892 282.02V338.424M573.892 282.02H629.113M573.892 338.424V394.828M573.892 338.424H629.113M573.892 394.828V451.232M573.892 394.828H629.113M573.892 451.232V507.636M573.892 451.232H629.113M573.892 507.636V564.04M573.892 507.636H629.113M573.892 564.04V620.444M573.892 564.04H629.113M573.892 620.444V676.848M573.892 620.444H629.113M573.892 676.848V733.252M573.892 676.848H629.113M573.892 733.252V789.656M573.892 733.252H629.113M573.892 789.656V846.059M573.892 789.656H629.113M573.892 846.059V902.463M573.892 846.059H629.113M573.892 902.463V958.867M573.892 902.463H629.113M573.892 958.867V1015.27M573.892 958.867H629.113M573.892 1015.27V1071.68M573.892 1015.27H629.113M573.892 1071.68V1128.08M573.892 1071.68H629.113M573.892 1128.08H629.113M629.113 0V56.404M629.113 0H684.335M629.113 56.404V112.808M629.113 56.404H684.335M629.113 112.808V169.212M629.113 112.808H684.335M629.113 169.212V225.616M629.113 169.212H684.335M629.113 225.616V282.02M629.113 225.616H684.335M629.113 282.02V338.424M629.113 282.02H684.335M629.113 338.424V394.828M629.113 338.424H684.335M629.113 394.828V451.232M629.113 394.828H684.335M629.113 451.232V507.636M629.113 451.232H684.335M629.113 507.636V564.04M629.113 507.636H684.335M629.113 564.04V620.444M629.113 564.04H684.335M629.113 620.444V676.848M629.113 620.444H684.335M629.113 676.848V733.252M629.113 676.848H684.335M629.113 733.252V789.656M629.113 733.252H684.335M629.113 789.656V846.059M629.113 789.656H684.335M629.113 846.059V902.463M629.113 846.059H684.335M629.113 902.463V958.867M629.113 902.463H684.335M629.113 958.867V1015.27M629.113 958.867H684.335M629.113 1015.27V1071.68M629.113 1015.27H684.335M629.113 1071.68V1128.08M629.113 1071.68H684.335M629.113 1128.08H684.335M684.335 0V56.404M684.335 0H739.557M684.335 56.404V112.808M684.335 56.404H739.557M684.335 112.808V169.212M684.335 112.808H739.557M684.335 169.212V225.616M684.335 169.212H739.557M684.335 225.616V282.02M684.335 225.616H739.557M684.335 282.02V338.424M684.335 282.02H739.557M684.335 338.424V394.828M684.335 338.424H739.557M684.335 394.828V451.232M684.335 394.828H739.557M684.335 451.232V507.636M684.335 451.232H739.557M684.335 507.636V564.04M684.335 507.636H739.557M684.335 564.04V620.444M684.335 564.04H739.557M684.335 620.444V676.848M684.335 620.444H739.557M684.335 676.848V733.252M684.335 676.848H739.557M684.335 733.252V789.656M684.335 733.252H739.557M684.335 789.656V846.059M684.335 789.656H739.557M684.335 846.059V902.463M684.335 846.059H739.557M684.335 902.463V958.867M684.335 902.463H739.557M684.335 958.867V1015.27M684.335 958.867H739.557M684.335 1015.27V1071.68M684.335 1015.27H739.557M684.335 1071.68V1128.08M684.335 1071.68H739.557M684.335 1128.08H739.557M739.557 0V56.404M739.557 0H794.778M739.557 56.404V112.808M739.557 56.404H794.778M739.557 112.808V169.212M739.557 112.808H794.778M739.557 169.212V225.616M739.557 169.212H794.778M739.557 225.616V282.02M739.557 225.616H794.778M739.557 282.02V338.424M739.557 282.02H794.778M739.557 338.424V394.828M739.557 338.424H794.778M739.557 394.828V451.232M739.557 394.828H794.778M739.557 451.232V507.636M739.557 451.232H794.778M739.557 507.636V564.04M739.557 507.636H794.778M739.557 564.04V620.444M739.557 564.04H794.778M739.557 620.444V676.848M739.557 620.444H794.778M739.557 676.848V733.252M739.557 676.848H794.778M739.557 733.252V789.656M739.557 733.252H794.778M739.557 789.656V846.059M739.557 789.656H794.778M739.557 846.059V902.463M739.557 846.059H794.778M739.557 902.463V958.867M739.557 902.463H794.778M739.557 958.867V1015.27M739.557 958.867H794.778M739.557 1015.27V1071.68M739.557 1015.27H794.778M739.557 1071.68V1128.08M739.557 1071.68H794.778M739.557 1128.08H794.778M794.778 0V56.404M794.778 0H850M794.778 56.404V112.808M794.778 56.404H850M794.778 112.808V169.212M794.778 112.808H850M794.778 169.212V225.616M794.778 169.212H850M794.778 225.616V282.02M794.778 225.616H850M794.778 282.02V338.424M794.778 282.02H850M794.778 338.424V394.828M794.778 338.424H850M794.778 394.828V451.232M794.778 394.828H850M794.778 451.232V507.636M794.778 451.232H850M794.778 507.636V564.04M794.778 507.636H850M794.778 564.04V620.444M794.778 564.04H850M794.778 620.444V676.848M794.778 620.444H850M794.778 676.848V733.252M794.778 676.848H850M794.778 733.252V789.656M794.778 733.252H850M794.778 789.656V846.059M794.778 789.656H850M794.778 846.059V902.463M794.778 846.059H850M794.778 902.463V958.867M794.778 902.463H850M794.778 958.867V1015.27M794.778 958.867H850M794.778 1015.27V1071.68M794.778 1015.27H850M794.778 1071.68V1128.08M794.778 1071.68H850M794.778 1128.08H850M850 0V56.404M850 0H905.222M850 56.404V112.808M850 56.404H905.222M850 112.808V169.212M850 112.808H905.222M850 169.212V225.616M850 169.212H905.222M850 225.616V282.02M850 225.616H905.222M850 282.02V338.424M850 282.02H905.222M850 338.424V394.828M850 338.424H905.222M850 394.828V451.232M850 394.828H905.222M850 451.232V507.636M850 451.232H905.222M850 507.636V564.04M850 507.636H905.222M850 564.04V620.444M850 564.04H905.222M850 620.444V676.848M850 620.444H905.222M850 676.848V733.252M850 676.848H905.222M850 733.252V789.656M850 733.252H905.222M850 789.656V846.059M850 789.656H905.222M850 846.059V902.463M850 846.059H905.222M850 902.463V958.867M850 902.463H905.222M850 958.867V1015.27M850 958.867H905.222M850 1015.27V1071.68M850 1015.27H905.222M850 1071.68V1128.08M850 1071.68H905.222M850 1128.08H905.222M905.222 0V56.404M905.222 0H960.444M905.222 56.404V112.808M905.222 56.404H960.444M905.222 112.808V169.212M905.222 112.808H960.444M905.222 169.212V225.616M905.222 169.212H960.444M905.222 225.616V282.02M905.222 225.616H960.444M905.222 282.02V338.424M905.222 282.02H960.444M905.222 338.424V394.828M905.222 338.424H960.444M905.222 394.828V451.232M905.222 394.828H960.444M905.222 451.232V507.636M905.222 451.232H960.444M905.222 507.636V564.04M905.222 507.636H960.444M905.222 564.04V620.444M905.222 564.04H960.444M905.222 620.444V676.848M905.222 620.444H960.444M905.222 676.848V733.252M905.222 676.848H960.444M905.222 733.252V789.656M905.222 733.252H960.444M905.222 789.656V846.059M905.222 789.656H960.444M905.222 846.059V902.463M905.222 846.059H960.444M905.222 902.463V958.867M905.222 902.463H960.444M905.222 958.867V1015.27M905.222 958.867H960.444M905.222 1015.27V1071.68M905.222 1015.27H960.444M905.222 1071.68V1128.08M905.222 1071.68H960.444M905.222 1128.08H960.444M960.444 0V56.404M960.444 0H1015.67M960.444 56.404V112.808M960.444 56.404H1015.67M960.444 112.808V169.212M960.444 112.808H1015.67M960.444 169.212V225.616M960.444 169.212H1015.67M960.444 225.616V282.02M960.444 225.616H1015.67M960.444 282.02V338.424M960.444 282.02H1015.67M960.444 338.424V394.828M960.444 338.424H1015.67M960.444 394.828V451.232M960.444 394.828H1015.67M960.444 451.232V507.636M960.444 451.232H1015.67M960.444 507.636V564.04M960.444 507.636H1015.67M960.444 564.04V620.444M960.444 564.04H1015.67M960.444 620.444V676.848M960.444 620.444H1015.67M960.444 676.848V733.252M960.444 676.848H1015.67M960.444 733.252V789.656M960.444 733.252H1015.67M960.444 789.656V846.059M960.444 789.656H1015.67M960.444 846.059V902.463M960.444 846.059H1015.67M960.444 902.463V958.867M960.444 902.463H1015.67M960.444 958.867V1015.27M960.444 958.867H1015.67M960.444 1015.27V1071.68M960.444 1015.27H1015.67M960.444 1071.68V1128.08M960.444 1071.68H1015.67M960.444 1128.08H1015.67M1015.67 0V56.404M1015.67 0H1070.89M1015.67 56.404V112.808M1015.67 56.404H1070.89M1015.67 112.808V169.212M1015.67 112.808H1070.89M1015.67 169.212V225.616M1015.67 169.212H1070.89M1015.67 225.616V282.02M1015.67 225.616H1070.89M1015.67 282.02V338.424M1015.67 282.02H1070.89M1015.67 338.424V394.828M1015.67 338.424H1070.89M1015.67 394.828V451.232M1015.67 394.828H1070.89M1015.67 451.232V507.636M1015.67 451.232H1070.89M1015.67 507.636V564.04M1015.67 507.636H1070.89M1015.67 564.04V620.444M1015.67 564.04H1070.89M1015.67 620.444V676.848M1015.67 620.444H1070.89M1015.67 676.848V733.252M1015.67 676.848H1070.89M1015.67 733.252V789.656M1015.67 733.252H1070.89M1015.67 789.656V846.059M1015.67 789.656H1070.89M1015.67 846.059V902.463M1015.67 846.059H1070.89M1015.67 902.463V958.867M1015.67 902.463H1070.89M1015.67 958.867V1015.27M1015.67 958.867H1070.89M1015.67 1015.27V1071.68M1015.67 1015.27H1070.89M1015.67 1071.68V1128.08M1015.67 1071.68H1070.89M1015.67 1128.08H1070.89M1070.89 0V56.404M1070.89 0H1126.11M1070.89 56.404V112.808M1070.89 56.404H1126.11M1070.89 112.808V169.212M1070.89 112.808H1126.11M1070.89 169.212V225.616M1070.89 169.212H1126.11M1070.89 225.616V282.02M1070.89 225.616H1126.11M1070.89 282.02V338.424M1070.89 282.02H1126.11M1070.89 338.424V394.828M1070.89 338.424H1126.11M1070.89 394.828V451.232M1070.89 394.828H1126.11M1070.89 451.232V507.636M1070.89 451.232H1126.11M1070.89 507.636V564.04M1070.89 507.636H1126.11M1070.89 564.04V620.444M1070.89 564.04H1126.11M1070.89 620.444V676.848M1070.89 620.444H1126.11M1070.89 676.848V733.252M1070.89 676.848H1126.11M1070.89 733.252V789.656M1070.89 733.252H1126.11M1070.89 789.656V846.059M1070.89 789.656H1126.11M1070.89 846.059V902.463M1070.89 846.059H1126.11M1070.89 902.463V958.867M1070.89 902.463H1126.11M1070.89 958.867V1015.27M1070.89 958.867H1126.11M1070.89 1015.27V1071.68M1070.89 1015.27H1126.11M1070.89 1071.68V1128.08M1070.89 1071.68H1126.11M1070.89 1128.08H1126.11M1126.11 0V56.404M1126.11 0H1181.33M1126.11 56.404V112.808M1126.11 56.404H1181.33M1126.11 112.808V169.212M1126.11 112.808H1181.33M1126.11 169.212V225.616M1126.11 169.212H1181.33M1126.11 225.616V282.02M1126.11 225.616H1181.33M1126.11 282.02V338.424M1126.11 282.02H1181.33M1126.11 338.424V394.828M1126.11 338.424H1181.33M1126.11 394.828V451.232M1126.11 394.828H1181.33M1126.11 451.232V507.636M1126.11 451.232H1181.33M1126.11 507.636V564.04M1126.11 507.636H1181.33M1126.11 564.04V620.444M1126.11 564.04H1181.33M1126.11 620.444V676.848M1126.11 620.444H1181.33M1126.11 676.848V733.252M1126.11 676.848H1181.33M1126.11 733.252V789.656M1126.11 733.252H1181.33M1126.11 789.656V846.059M1126.11 789.656H1181.33M1126.11 846.059V902.463M1126.11 846.059H1181.33M1126.11 902.463V958.867M1126.11 902.463H1181.33M1126.11 958.867V1015.27M1126.11 958.867H1181.33M1126.11 1015.27V1071.68M1126.11 1015.27H1181.33M1126.11 1071.68V1128.08M1126.11 1071.68H1181.33M1126.11 1128.08H1181.33M1181.33 0V56.404M1181.33 0H1236.55M1181.33 56.404V112.808M1181.33 56.404H1236.55M1181.33 112.808V169.212M1181.33 112.808H1236.55M1181.33 169.212V225.616M1181.33 169.212H1236.55M1181.33 225.616V282.02M1181.33 225.616H1236.55M1181.33 282.02V338.424M1181.33 282.02H1236.55M1181.33 338.424V394.828M1181.33 338.424H1236.55M1181.33 394.828V451.232M1181.33 394.828H1236.55M1181.33 451.232V507.636M1181.33 451.232H1236.55M1181.33 507.636V564.04M1181.33 507.636H1236.55M1181.33 564.04V620.444M1181.33 564.04H1236.55M1181.33 620.444V676.848M1181.33 620.444H1236.55M1181.33 676.848V733.252M1181.33 676.848H1236.55M1181.33 733.252V789.656M1181.33 733.252H1236.55M1181.33 789.656V846.059M1181.33 789.656H1236.55M1181.33 846.059V902.463M1181.33 846.059H1236.55M1181.33 902.463V958.867M1181.33 902.463H1236.55M1181.33 958.867V1015.27M1181.33 958.867H1236.55M1181.33 1015.27V1071.68M1181.33 1015.27H1236.55M1181.33 1071.68V1128.08M1181.33 1071.68H1236.55M1181.33 1128.08H1236.55M1236.55 0V56.404M1236.55 0H1291.77M1236.55 56.404V112.808M1236.55 56.404H1291.77M1236.55 112.808V169.212M1236.55 112.808H1291.77M1236.55 169.212V225.616M1236.55 169.212H1291.77M1236.55 225.616V282.02M1236.55 225.616H1291.77M1236.55 282.02V338.424M1236.55 282.02H1291.77M1236.55 338.424V394.828M1236.55 338.424H1291.77M1236.55 394.828V451.232M1236.55 394.828H1291.77M1236.55 451.232V507.636M1236.55 451.232H1291.77M1236.55 507.636V564.04M1236.55 507.636H1291.77M1236.55 564.04V620.444M1236.55 564.04H1291.77M1236.55 620.444V676.848M1236.55 620.444H1291.77M1236.55 676.848V733.252M1236.55 676.848H1291.77M1236.55 733.252V789.656M1236.55 733.252H1291.77M1236.55 789.656V846.059M1236.55 789.656H1291.77M1236.55 846.059V902.463M1236.55 846.059H1291.77M1236.55 902.463V958.867M1236.55 902.463H1291.77M1236.55 958.867V1015.27M1236.55 958.867H1291.77M1236.55 1015.27V1071.68M1236.55 1015.27H1291.77M1236.55 1071.68V1128.08M1236.55 1071.68H1291.77M1236.55 1128.08H1291.77M1291.77 0V56.404M1291.77 0H1347M1291.77 56.404V112.808M1291.77 56.404H1347M1291.77 112.808V169.212M1291.77 112.808H1347M1291.77 169.212V225.616M1291.77 169.212H1347M1291.77 225.616V282.02M1291.77 225.616H1347M1291.77 282.02V338.424M1291.77 282.02H1347M1291.77 338.424V394.828M1291.77 338.424H1347M1291.77 394.828V451.232M1291.77 394.828H1347M1291.77 451.232V507.636M1291.77 451.232H1347M1291.77 507.636V564.04M1291.77 507.636H1347M1291.77 564.04V620.444M1291.77 564.04H1347M1291.77 620.444V676.848M1291.77 620.444H1347M1291.77 676.848V733.252M1291.77 676.848H1347M1291.77 733.252V789.656M1291.77 733.252H1347M1291.77 789.656V846.059M1291.77 789.656H1347M1291.77 846.059V902.463M1291.77 846.059H1347M1291.77 902.463V958.867M1291.77 902.463H1347M1291.77 958.867V1015.27M1291.77 958.867H1347M1291.77 1015.27V1071.68M1291.77 1015.27H1347M1291.77 1071.68V1128.08M1291.77 1071.68H1347M1291.77 1128.08H1347M1347 0V56.404M1347 0H1402.22M1347 56.404V112.808M1347 56.404H1402.22M1347 112.808V169.212M1347 112.808H1402.22M1347 169.212V225.616M1347 169.212H1402.22M1347 225.616V282.02M1347 225.616H1402.22M1347 282.02V338.424M1347 282.02H1402.22M1347 338.424V394.828M1347 338.424H1402.22M1347 394.828V451.232M1347 394.828H1402.22M1347 451.232V507.636M1347 451.232H1402.22M1347 507.636V564.04M1347 507.636H1402.22M1347 564.04V620.444M1347 564.04H1402.22M1347 620.444V676.848M1347 620.444H1402.22M1347 676.848V733.252M1347 676.848H1402.22M1347 733.252V789.656M1347 733.252H1402.22M1347 789.656V846.059M1347 789.656H1402.22M1347 846.059V902.463M1347 846.059H1402.22M1347 902.463V958.867M1347 902.463H1402.22M1347 958.867V1015.27M1347 958.867H1402.22M1347 1015.27V1071.68M1347 1015.27H1402.22M1347 1071.68V1128.08M1347 1071.68H1402.22M1347 1128.08H1402.22M1402.22 0V56.404M1402.22 0H1457.44M1402.22 56.404V112.808M1402.22 56.404H1457.44M1402.22 112.808V169.212M1402.22 112.808H1457.44M1402.22 169.212V225.616M1402.22 169.212H1457.44M1402.22 225.616V282.02M1402.22 225.616H1457.44M1402.22 282.02V338.424M1402.22 282.02H1457.44M1402.22 338.424V394.828M1402.22 338.424H1457.44M1402.22 394.828V451.232M1402.22 394.828H1457.44M1402.22 451.232V507.636M1402.22 451.232H1457.44M1402.22 507.636V564.04M1402.22 507.636H1457.44M1402.22 564.04V620.444M1402.22 564.04H1457.44M1402.22 620.444V676.848M1402.22 620.444H1457.44M1402.22 676.848V733.252M1402.22 676.848H1457.44M1402.22 733.252V789.656M1402.22 733.252H1457.44M1402.22 789.656V846.059M1402.22 789.656H1457.44M1402.22 846.059V902.463M1402.22 846.059H1457.44M1402.22 902.463V958.867M1402.22 902.463H1457.44M1402.22 958.867V1015.27M1402.22 958.867H1457.44M1402.22 1015.27V1071.68M1402.22 1015.27H1457.44M1402.22 1071.68V1128.08M1402.22 1071.68H1457.44M1402.22 1128.08H1457.44M1457.44 0V56.404M1457.44 0H1512.66M1457.44 56.404V112.808M1457.44 56.404H1512.66M1457.44 112.808V169.212M1457.44 112.808H1512.66M1457.44 169.212V225.616M1457.44 169.212H1512.66M1457.44 225.616V282.02M1457.44 225.616H1512.66M1457.44 282.02V338.424M1457.44 282.02H1512.66M1457.44 338.424V394.828M1457.44 338.424H1512.66M1457.44 394.828V451.232M1457.44 394.828H1512.66M1457.44 451.232V507.636M1457.44 451.232H1512.66M1457.44 507.636V564.04M1457.44 507.636H1512.66M1457.44 564.04V620.444M1457.44 564.04H1512.66M1457.44 620.444V676.848M1457.44 620.444H1512.66M1457.44 676.848V733.252M1457.44 676.848H1512.66M1457.44 733.252V789.656M1457.44 733.252H1512.66M1457.44 789.656V846.059M1457.44 789.656H1512.66M1457.44 846.059V902.463M1457.44 846.059H1512.66M1457.44 902.463V958.867M1457.44 902.463H1512.66M1457.44 958.867V1015.27M1457.44 958.867H1512.66M1457.44 1015.27V1071.68M1457.44 1015.27H1512.66M1457.44 1071.68V1128.08M1457.44 1071.68H1512.66M1457.44 1128.08H1512.66M1512.66 0V56.404M1512.66 0H1567.88M1512.66 56.404V112.808M1512.66 56.404H1567.88M1512.66 112.808V169.212M1512.66 112.808H1567.88M1512.66 169.212V225.616M1512.66 169.212H1567.88M1512.66 225.616V282.02M1512.66 225.616H1567.88M1512.66 282.02V338.424M1512.66 282.02H1567.88M1512.66 338.424V394.828M1512.66 338.424H1567.88M1512.66 394.828V451.232M1512.66 394.828H1567.88M1512.66 451.232V507.636M1512.66 451.232H1567.88M1512.66 507.636V564.04M1512.66 507.636H1567.88M1512.66 564.04V620.444M1512.66 564.04H1567.88M1512.66 620.444V676.848M1512.66 620.444H1567.88M1512.66 676.848V733.252M1512.66 676.848H1567.88M1512.66 733.252V789.656M1512.66 733.252H1567.88M1512.66 789.656V846.059M1512.66 789.656H1567.88M1512.66 846.059V902.463M1512.66 846.059H1567.88M1512.66 902.463V958.867M1512.66 902.463H1567.88M1512.66 958.867V1015.27M1512.66 958.867H1567.88M1512.66 1015.27V1071.68M1512.66 1015.27H1567.88M1512.66 1071.68V1128.08M1512.66 1071.68H1567.88M1512.66 1128.08H1567.88M1567.88 0V56.404M1567.88 0H1623.1M1567.88 56.404V112.808M1567.88 56.404H1623.1M1567.88 112.808V169.212M1567.88 112.808H1623.1M1567.88 169.212V225.616M1567.88 169.212H1623.1M1567.88 225.616V282.02M1567.88 225.616H1623.1M1567.88 282.02V338.424M1567.88 282.02H1623.1M1567.88 338.424V394.828M1567.88 338.424H1623.1M1567.88 394.828V451.232M1567.88 394.828H1623.1M1567.88 451.232V507.636M1567.88 451.232H1623.1M1567.88 507.636V564.04M1567.88 507.636H1623.1M1567.88 564.04V620.444M1567.88 564.04H1623.1M1567.88 620.444V676.848M1567.88 620.444H1623.1M1567.88 676.848V733.252M1567.88 676.848H1623.1M1567.88 733.252V789.656M1567.88 733.252H1623.1M1567.88 789.656V846.059M1567.88 789.656H1623.1M1567.88 846.059V902.463M1567.88 846.059H1623.1M1567.88 902.463V958.867M1567.88 902.463H1623.1M1567.88 958.867V1015.27M1567.88 958.867H1623.1M1567.88 1015.27V1071.68M1567.88 1015.27H1623.1M1567.88 1071.68V1128.08M1567.88 1071.68H1623.1M1567.88 1128.08H1623.1M1623.1 0V56.404M1623.1 0H1678.33M1623.1 56.404V112.808M1623.1 56.404H1678.33M1623.1 112.808V169.212M1623.1 112.808H1678.33M1623.1 169.212V225.616M1623.1 169.212H1678.33M1623.1 225.616V282.02M1623.1 225.616H1678.33M1623.1 282.02V338.424M1623.1 282.02H1678.33M1623.1 338.424V394.828M1623.1 338.424H1678.33M1623.1 394.828V451.232M1623.1 394.828H1678.33M1623.1 451.232V507.636M1623.1 451.232H1678.33M1623.1 507.636V564.04M1623.1 507.636H1678.33M1623.1 564.04V620.444M1623.1 564.04H1678.33M1623.1 620.444V676.848M1623.1 620.444H1678.33M1623.1 676.848V733.252M1623.1 676.848H1678.33M1623.1 733.252V789.656M1623.1 733.252H1678.33M1623.1 789.656V846.059M1623.1 789.656H1678.33M1623.1 846.059V902.463M1623.1 846.059H1678.33M1623.1 902.463V958.867M1623.1 902.463H1678.33M1623.1 958.867V1015.27M1623.1 958.867H1678.33M1623.1 1015.27V1071.68M1623.1 1015.27H1678.33M1623.1 1071.68V1128.08M1623.1 1071.68H1678.33M1623.1 1128.08H1678.33M1678.33 0V56.404M1678.33 0H1733.55M1678.33 56.404V112.808M1678.33 56.404H1733.55M1678.33 112.808V169.212M1678.33 112.808H1733.55M1678.33 169.212V225.616M1678.33 169.212H1733.55M1678.33 225.616V282.02M1678.33 225.616H1733.55M1678.33 282.02V338.424M1678.33 282.02H1733.55M1678.33 338.424V394.828M1678.33 338.424H1733.55M1678.33 394.828V451.232M1678.33 394.828H1733.55M1678.33 451.232V507.636M1678.33 451.232H1733.55M1678.33 507.636V564.04M1678.33 507.636H1733.55M1678.33 564.04V620.444M1678.33 564.04H1733.55M1678.33 620.444V676.848M1678.33 620.444H1733.55M1678.33 676.848V733.252M1678.33 676.848H1733.55M1678.33 733.252V789.656M1678.33 733.252H1733.55M1678.33 789.656V846.059M1678.33 789.656H1733.55M1678.33 846.059V902.463M1678.33 846.059H1733.55M1678.33 902.463V958.867M1678.33 902.463H1733.55M1678.33 958.867V1015.27M1678.33 958.867H1733.55M1678.33 1015.27V1071.68M1678.33 1015.27H1733.55M1678.33 1071.68V1128.08M1678.33 1071.68H1733.55M1678.33 1128.08H1733.55M1733.55 0V56.404M1733.55 0H1788.77M1733.55 56.404V112.808M1733.55 56.404H1788.77M1733.55 112.808V169.212M1733.55 112.808H1788.77M1733.55 169.212V225.616M1733.55 169.212H1788.77M1733.55 225.616V282.02M1733.55 225.616H1788.77M1733.55 282.02V338.424M1733.55 282.02H1788.77M1733.55 338.424V394.828M1733.55 338.424H1788.77M1733.55 394.828V451.232M1733.55 394.828H1788.77M1733.55 451.232V507.636M1733.55 451.232H1788.77M1733.55 507.636V564.04M1733.55 507.636H1788.77M1733.55 564.04V620.444M1733.55 564.04H1788.77M1733.55 620.444V676.848M1733.55 620.444H1788.77M1733.55 676.848V733.252M1733.55 676.848H1788.77M1733.55 733.252V789.656M1733.55 733.252H1788.77M1733.55 789.656V846.059M1733.55 789.656H1788.77M1733.55 846.059V902.463M1733.55 846.059H1788.77M1733.55 902.463V958.867M1733.55 902.463H1788.77M1733.55 958.867V1015.27M1733.55 958.867H1788.77M1733.55 1015.27V1071.68M1733.55 1015.27H1788.77M1733.55 1071.68V1128.08M1733.55 1071.68H1788.77M1733.55 1128.08H1788.77M1788.77 0V56.404M1788.77 0H1843.99M1788.77 56.404V112.808M1788.77 56.404H1843.99M1788.77 112.808V169.212M1788.77 112.808H1843.99M1788.77 169.212V225.616M1788.77 169.212H1843.99M1788.77 225.616V282.02M1788.77 225.616H1843.99M1788.77 282.02V338.424M1788.77 282.02H1843.99M1788.77 338.424V394.828M1788.77 338.424H1843.99M1788.77 394.828V451.232M1788.77 394.828H1843.99M1788.77 451.232V507.636M1788.77 451.232H1843.99M1788.77 507.636V564.04M1788.77 507.636H1843.99M1788.77 564.04V620.444M1788.77 564.04H1843.99M1788.77 620.444V676.848M1788.77 620.444H1843.99M1788.77 676.848V733.252M1788.77 676.848H1843.99M1788.77 733.252V789.656M1788.77 733.252H1843.99M1788.77 789.656V846.059M1788.77 789.656H1843.99M1788.77 846.059V902.463M1788.77 846.059H1843.99M1788.77 902.463V958.867M1788.77 902.463H1843.99M1788.77 958.867V1015.27M1788.77 958.867H1843.99M1788.77 1015.27V1071.68M1788.77 1015.27H1843.99M1788.77 1071.68V1128.08M1788.77 1071.68H1843.99M1788.77 1128.08H1843.99M1843.99 0V56.404M1843.99 0H1899.21M1843.99 56.404V112.808M1843.99 56.404H1899.21M1843.99 112.808V169.212M1843.99 112.808H1899.21M1843.99 169.212V225.616M1843.99 169.212H1899.21M1843.99 225.616V282.02M1843.99 225.616H1899.21M1843.99 282.02V338.424M1843.99 282.02H1899.21M1843.99 338.424V394.828M1843.99 338.424H1899.21M1843.99 394.828V451.232M1843.99 394.828H1899.21M1843.99 451.232V507.636M1843.99 451.232H1899.21M1843.99 507.636V564.04M1843.99 507.636H1899.21M1843.99 564.04V620.444M1843.99 564.04H1899.21M1843.99 620.444V676.848M1843.99 620.444H1899.21M1843.99 676.848V733.252M1843.99 676.848H1899.21M1843.99 733.252V789.656M1843.99 733.252H1899.21M1843.99 789.656V846.059M1843.99 789.656H1899.21M1843.99 846.059V902.463M1843.99 846.059H1899.21M1843.99 902.463V958.867M1843.99 902.463H1899.21M1843.99 958.867V1015.27M1843.99 958.867H1899.21M1843.99 1015.27V1071.68M1843.99 1015.27H1899.21M1843.99 1071.68V1128.08M1843.99 1071.68H1899.21M1843.99 1128.08H1899.21M1899.21 0V56.404M1899.21 0H1954.43M1899.21 56.404V112.808M1899.21 56.404H1954.43M1899.21 112.808V169.212M1899.21 112.808H1954.43M1899.21 169.212V225.616M1899.21 169.212H1954.43M1899.21 225.616V282.02M1899.21 225.616H1954.43M1899.21 282.02V338.424M1899.21 282.02H1954.43M1899.21 338.424V394.828M1899.21 338.424H1954.43M1899.21 394.828V451.232M1899.21 394.828H1954.43M1899.21 451.232V507.636M1899.21 451.232H1954.43M1899.21 507.636V564.04M1899.21 507.636H1954.43M1899.21 564.04V620.444M1899.21 564.04H1954.43M1899.21 620.444V676.848M1899.21 620.444H1954.43M1899.21 676.848V733.252M1899.21 676.848H1954.43M1899.21 733.252V789.656M1899.21 733.252H1954.43M1899.21 789.656V846.059M1899.21 789.656H1954.43M1899.21 846.059V902.463M1899.21 846.059H1954.43M1899.21 902.463V958.867M1899.21 902.463H1954.43M1899.21 958.867V1015.27M1899.21 958.867H1954.43M1899.21 1015.27V1071.68M1899.21 1015.27H1954.43M1899.21 1071.68V1128.08M1899.21 1071.68H1954.43M1899.21 1128.08H1954.43M1954.43 0V56.404M1954.43 0H2009.66M1954.43 56.404V112.808M1954.43 56.404H2009.66M1954.43 112.808V169.212M1954.43 112.808H2009.66M1954.43 169.212V225.616M1954.43 169.212H2009.66M1954.43 225.616V282.02M1954.43 225.616H2009.66M1954.43 282.02V338.424M1954.43 282.02H2009.66M1954.43 338.424V394.828M1954.43 338.424H2009.66M1954.43 394.828V451.232M1954.43 394.828H2009.66M1954.43 451.232V507.636M1954.43 451.232H2009.66M1954.43 507.636V564.04M1954.43 507.636H2009.66M1954.43 564.04V620.444M1954.43 564.04H2009.66M1954.43 620.444V676.848M1954.43 620.444H2009.66M1954.43 676.848V733.252M1954.43 676.848H2009.66M1954.43 733.252V789.656M1954.43 733.252H2009.66M1954.43 789.656V846.059M1954.43 789.656H2009.66M1954.43 846.059V902.463M1954.43 846.059H2009.66M1954.43 902.463V958.867M1954.43 902.463H2009.66M1954.43 958.867V1015.27M1954.43 958.867H2009.66M1954.43 1015.27V1071.68M1954.43 1015.27H2009.66M1954.43 1071.68V1128.08M1954.43 1071.68H2009.66M1954.43 1128.08H2009.66M2009.66 0V56.404M2009.66 0H2064.88M2009.66 56.404V112.808M2009.66 56.404H2064.88M2009.66 112.808V169.212M2009.66 112.808H2064.88M2009.66 169.212V225.616M2009.66 169.212H2064.88M2009.66 225.616V282.02M2009.66 225.616H2064.88M2009.66 282.02V338.424M2009.66 282.02H2064.88M2009.66 338.424V394.828M2009.66 338.424H2064.88M2009.66 394.828V451.232M2009.66 394.828H2064.88M2009.66 451.232V507.636M2009.66 451.232H2064.88M2009.66 507.636V564.04M2009.66 507.636H2064.88M2009.66 564.04V620.444M2009.66 564.04H2064.88M2009.66 620.444V676.848M2009.66 620.444H2064.88M2009.66 676.848V733.252M2009.66 676.848H2064.88M2009.66 733.252V789.656M2009.66 733.252H2064.88M2009.66 789.656V846.059M2009.66 789.656H2064.88M2009.66 846.059V902.463M2009.66 846.059H2064.88M2009.66 902.463V958.867M2009.66 902.463H2064.88M2009.66 958.867V1015.27M2009.66 958.867H2064.88M2009.66 1015.27V1071.68M2009.66 1015.27H2064.88M2009.66 1071.68V1128.08M2009.66 1071.68H2064.88M2009.66 1128.08H2064.88M2064.88 0V56.404M2064.88 0H2120.1M2064.88 56.404V112.808M2064.88 56.404H2120.1M2064.88 112.808V169.212M2064.88 112.808H2120.1M2064.88 169.212V225.616M2064.88 169.212H2120.1M2064.88 225.616V282.02M2064.88 225.616H2120.1M2064.88 282.02V338.424M2064.88 282.02H2120.1M2064.88 338.424V394.828M2064.88 338.424H2120.1M2064.88 394.828V451.232M2064.88 394.828H2120.1M2064.88 451.232V507.636M2064.88 451.232H2120.1M2064.88 507.636V564.04M2064.88 507.636H2120.1M2064.88 564.04V620.444M2064.88 564.04H2120.1M2064.88 620.444V676.848M2064.88 620.444H2120.1M2064.88 676.848V733.252M2064.88 676.848H2120.1M2064.88 733.252V789.656M2064.88 733.252H2120.1M2064.88 789.656V846.059M2064.88 789.656H2120.1M2064.88 846.059V902.463M2064.88 846.059H2120.1M2064.88 902.463V958.867M2064.88 902.463H2120.1M2064.88 958.867V1015.27M2064.88 958.867H2120.1M2064.88 1015.27V1071.68M2064.88 1015.27H2120.1M2064.88 1071.68V1128.08M2064.88 1071.68H2120.1M2064.88 1128.08H2120.1M2120.1 0V56.404M2120.1 0H2175.32V56.404M2120.1 56.404V112.808M2120.1 56.404H2175.32M2120.1 112.808V169.212M2120.1 112.808H2175.32M2120.1 169.212V225.616M2120.1 169.212H2175.32M2120.1 225.616V282.02M2120.1 225.616H2175.32M2120.1 282.02V338.424M2120.1 282.02H2175.32M2120.1 338.424V394.828M2120.1 338.424H2175.32M2120.1 394.828V451.232M2120.1 394.828H2175.32M2120.1 451.232V507.636M2120.1 451.232H2175.32M2120.1 507.636V564.04M2120.1 507.636H2175.32M2120.1 564.04V620.444M2120.1 564.04H2175.32M2120.1 620.444V676.848M2120.1 620.444H2175.32M2120.1 676.848V733.252M2120.1 676.848H2175.32M2120.1 733.252V789.656M2120.1 733.252H2175.32M2120.1 789.656V846.059M2120.1 789.656H2175.32M2120.1 846.059V902.463M2120.1 846.059H2175.32M2120.1 902.463V958.867M2120.1 902.463H2175.32M2120.1 958.867V1015.27M2120.1 958.867H2175.32M2120.1 1015.27V1071.68M2120.1 1015.27H2175.32M2120.1 1071.68V1128.08M2120.1 1071.68H2175.32M2120.1 1128.08H2175.32V1071.68M2175.32 56.404V112.808M2175.32 112.808V169.212M2175.32 169.212V225.616M2175.32 225.616V282.02M2175.32 282.02V338.424M2175.32 338.424V394.828M2175.32 394.828V451.232M2175.32 451.232V507.636M2175.32 507.636V564.04M2175.32 564.04V620.444M2175.32 620.444V676.848M2175.32 676.848V733.252M2175.32 733.252V789.656M2175.32 789.656V846.059M2175.32 846.059V902.463M2175.32 902.463V958.867M2175.32 958.867V1015.27M2175.32 1015.27V1071.68" stroke="url(#paint0_linear_4138_10158)" stroke-width="0.584804"/>
<defs>
<linearGradient id="paint0_linear_4138_10158" x1="1678.93" y1="60.2809" x2="159.982" y2="833.86" gradientUnits="userSpaceOnUse">
<stop offset="0.358791"/>
<stop offset="1" stop-opacity="0"/>
</linearGradient>
</defs>
</svg>
