<svg width="1872" height="767" viewBox="0 0 1872 767" fill="none" xmlns="http://www.w3.org/2000/svg">
<g clip-path="url(#clip0_4166_15923)">
<g filter="url(#filter0_f_4166_15923)">
<ellipse cx="-142.271" cy="350.994" rx="664.985" ry="673.184" transform="rotate(-128.459 -142.271 350.994)" fill="url(#paint0_linear_4166_15923)"/>
</g>
<g filter="url(#filter1_f_4166_15923)">
<ellipse cx="130.941" cy="-263.674" rx="449.681" ry="454.849" fill="#7DFFE7"/>
</g>
<g filter="url(#filter2_f_4166_15923)">
<ellipse cx="-80.0862" cy="-359.207" rx="367.337" ry="371.793" fill="#FFC1DF"/>
</g>
<g filter="url(#filter3_f_4166_15923)">
<path d="M708.367 653.535C848.775 303.216 626.941 -128.065 -8.1448 -247.195C581.127 -6.79272 587.374 391.713 532.63 688.696L708.367 653.535Z" fill="white" fill-opacity="0.85"/>
</g>
<g filter="url(#filter4_f_4166_15923)">
<path d="M850.434 488.432C1005.39 272.29 926.063 -60.1345 511.468 -248.39C874.33 15.1581 811.634 288.922 724.261 482.96L850.434 488.432Z" fill="white" fill-opacity="0.85"/>
</g>
<g filter="url(#filter5_f_4166_15923)">
<path d="M373.881 638.495C481.771 359.019 301.324 18.9568 -203.958 -69.1552C266.191 115.677 275.192 431.911 234.754 668.185L373.881 638.495Z" fill="url(#paint1_linear_4166_15923)" fill-opacity="0.7"/>
</g>
<g filter="url(#filter6_f_4166_15923)">
<path d="M157.485 679.957C201.704 383.661 -48.6832 91.2414 -561.009 115.658C-61.8345 193.301 -478.532 591.79 -466.369 831.19L157.485 679.957Z" fill="white" fill-opacity="0.8"/>
</g>
<g filter="url(#filter7_f_4166_15923)">
<ellipse cx="664.985" cy="673.184" rx="664.985" ry="673.184" transform="matrix(0.621948 -0.783059 -0.783059 -0.621948 2127.83 1290.4)" fill="url(#paint2_linear_4166_15923)"/>
</g>
<g filter="url(#filter8_f_4166_15923)">
<ellipse cx="449.681" cy="454.849" rx="449.681" ry="454.849" transform="matrix(-1 0 0 1 2190.74 -718.523)" fill="#7DFFE7"/>
</g>
<g filter="url(#filter9_f_4166_15923)">
<ellipse cx="367.337" cy="371.793" rx="367.337" ry="371.793" transform="matrix(-1 0 0 1 2319.42 -731)" fill="#FFC1DF"/>
</g>
<g filter="url(#filter10_f_4166_15923)">
<path d="M1163.63 653.535C1023.23 303.216 1245.06 -128.065 1880.14 -247.195C1290.87 -6.79272 1284.63 391.713 1339.37 688.696L1163.63 653.535Z" fill="white" fill-opacity="0.85"/>
</g>
<g filter="url(#filter11_f_4166_15923)">
<path d="M1021.57 488.432C866.606 272.29 945.937 -60.1345 1360.53 -248.39C997.67 15.1581 1060.37 288.922 1147.74 482.96L1021.57 488.432Z" fill="white" fill-opacity="0.85"/>
</g>
<g filter="url(#filter12_f_4166_15923)">
<path d="M1498.12 638.495C1390.23 359.019 1570.68 18.9568 2075.96 -69.1552C1605.81 115.677 1596.81 431.911 1637.25 668.185L1498.12 638.495Z" fill="url(#paint3_linear_4166_15923)" fill-opacity="0.7"/>
</g>
<g filter="url(#filter13_f_4166_15923)">
<path d="M1714.51 679.957C1670.3 383.661 1920.68 91.2414 2433.01 115.658C1933.83 193.301 2350.53 591.79 2338.37 831.19L1714.51 679.957Z" fill="white" fill-opacity="0.8"/>
</g>
</g>
<g clip-path="url(#clip1_4166_15923)">
<g opacity="0.15" filter="url(#filter14_f_4166_15923)">
<ellipse cx="81.565" cy="896.901" rx="227.565" ry="215.901" fill="#FEA36B"/>
</g>
<g opacity="0.15" filter="url(#filter15_f_4166_15923)">
<ellipse cx="1640.56" cy="896.901" rx="227.565" ry="215.901" fill="#6183FF"/>
</g>
<path opacity="0.06" d="M-61.1806 -12H-107.965V40.4631M-61.1806 -12V40.4631M-61.1806 -12H-14.3963M-61.1806 40.4631H-107.965M-61.1806 40.4631V92.9262M-61.1806 40.4631H-14.3963M-107.965 40.4631V92.9262M-61.1806 92.9262H-107.965M-61.1806 92.9262V145.389M-61.1806 92.9262H-14.3963M-107.965 92.9262V145.389M-61.1806 145.389H-107.965M-61.1806 145.389V197.852M-61.1806 145.389H-14.3963M-107.965 145.389V197.852M-61.1806 197.852H-107.965M-61.1806 197.852V250.315M-61.1806 197.852H-14.3963M-107.965 197.852V250.315M-61.1806 250.315H-107.965M-61.1806 250.315V302.778M-61.1806 250.315H-14.3963M-107.965 250.315V302.778M-61.1806 302.778H-107.965M-61.1806 302.778V355.242M-61.1806 302.778H-14.3963M-107.965 302.778V355.242M-61.1806 355.242H-107.965M-61.1806 355.242V407.705M-61.1806 355.242H-14.3963M-107.965 355.242V407.705M-61.1806 407.705H-107.965M-61.1806 407.705V460.168M-61.1806 407.705H-14.3963M-107.965 407.705V460.168M-61.1806 460.168H-107.965M-61.1806 460.168V512.631M-61.1806 460.168H-14.3963M-107.965 460.168V512.631M-61.1806 512.631H-107.965M-61.1806 512.631V565.094M-61.1806 512.631H-14.3963M-107.965 512.631V565.094M-61.1806 565.094H-107.965M-61.1806 565.094V617.557M-61.1806 565.094H-14.3963M-107.965 565.094V617.557M-61.1806 617.557H-107.965M-61.1806 617.557V670.02M-61.1806 617.557H-14.3963M-107.965 617.557V670.02M-61.1806 670.02H-107.965M-61.1806 670.02V722.483M-61.1806 670.02H-14.3963M-107.965 670.02V722.483M-61.1806 722.483H-107.965M-61.1806 722.483V774.946M-61.1806 722.483H-14.3963M-107.965 722.483V774.946M-61.1806 774.946H-107.965M-61.1806 774.946V827.409M-61.1806 774.946H-14.3963M-107.965 774.946V827.409M-61.1806 827.409H-107.965M-61.1806 827.409V879.872M-61.1806 827.409H-14.3963M-107.965 827.409V879.872M-61.1806 879.872H-107.965M-61.1806 879.872V932.335M-61.1806 879.872H-14.3963M-107.965 879.872V932.335M-61.1806 932.335H-107.965M-61.1806 932.335V984.798M-61.1806 932.335H-14.3963M-107.965 932.335V984.798M-61.1806 984.798H-107.965M-61.1806 984.798V1037.26M-61.1806 984.798H-14.3963M-107.965 984.798V1037.26H-61.1806M-61.1806 1037.26H-14.3963M-14.3963 -12V40.4631M-14.3963 -12H32.388M-14.3963 40.4631V92.9262M-14.3963 40.4631H32.388M-14.3963 92.9262V145.389M-14.3963 92.9262H32.388M-14.3963 145.389V197.852M-14.3963 145.389H32.388M-14.3963 197.852V250.315M-14.3963 197.852H32.388M-14.3963 250.315V302.778M-14.3963 250.315H32.388M-14.3963 302.778V355.242M-14.3963 302.778H32.388M-14.3963 355.242V407.705M-14.3963 355.242H32.388M-14.3963 407.705V460.168M-14.3963 407.705H32.388M-14.3963 460.168V512.631M-14.3963 460.168H32.388M-14.3963 512.631V565.094M-14.3963 512.631H32.388M-14.3963 565.094V617.557M-14.3963 565.094H32.388M-14.3963 617.557V670.02M-14.3963 617.557H32.388M-14.3963 670.02V722.483M-14.3963 670.02H32.388M-14.3963 722.483V774.946M-14.3963 722.483H32.388M-14.3963 774.946V827.409M-14.3963 774.946H32.388M-14.3963 827.409V879.872M-14.3963 827.409H32.388M-14.3963 879.872V932.335M-14.3963 879.872H32.388M-14.3963 932.335V984.798M-14.3963 932.335H32.388M-14.3963 984.798V1037.26M-14.3963 984.798H32.388M-14.3963 1037.26H32.388M32.388 -12V40.4631M32.388 -12H79.1723M32.388 40.4631V92.9262M32.388 40.4631H79.1723M32.388 92.9262V145.389M32.388 92.9262H79.1723M32.388 145.389V197.852M32.388 145.389H79.1723M32.388 197.852V250.315M32.388 197.852H79.1723M32.388 250.315V302.778M32.388 250.315H79.1723M32.388 302.778V355.242M32.388 302.778H79.1723M32.388 355.242V407.705M32.388 355.242H79.1723M32.388 407.705V460.168M32.388 407.705H79.1723M32.388 460.168V512.631M32.388 460.168H79.1723M32.388 512.631V565.094M32.388 512.631H79.1723M32.388 565.094V617.557M32.388 565.094H79.1723M32.388 617.557V670.02M32.388 617.557H79.1723M32.388 670.02V722.483M32.388 670.02H79.1723M32.388 722.483V774.946M32.388 722.483H79.1723M32.388 774.946V827.409M32.388 774.946H79.1723M32.388 827.409V879.872M32.388 827.409H79.1723M32.388 879.872V932.335M32.388 879.872H79.1723M32.388 932.335V984.798M32.388 932.335H79.1723M32.388 984.798V1037.26M32.388 984.798H79.1723M32.388 1037.26H79.1723M79.1723 -12V40.4631M79.1723 -12H125.957M79.1723 40.4631V92.9262M79.1723 40.4631H125.957M79.1723 92.9262V145.389M79.1723 92.9262H125.957M79.1723 145.389V197.852M79.1723 145.389H125.957M79.1723 197.852V250.315M79.1723 197.852H125.957M79.1723 250.315V302.778M79.1723 250.315H125.957M79.1723 302.778V355.242M79.1723 302.778H125.957M79.1723 355.242V407.705M79.1723 355.242H125.957M79.1723 407.705V460.168M79.1723 407.705H125.957M79.1723 460.168V512.631M79.1723 460.168H125.957M79.1723 512.631V565.094M79.1723 512.631H125.957M79.1723 565.094V617.557M79.1723 565.094H125.957M79.1723 617.557V670.02M79.1723 617.557H125.957M79.1723 670.02V722.483M79.1723 670.02H125.957M79.1723 722.483V774.946M79.1723 722.483H125.957M79.1723 774.946V827.409M79.1723 774.946H125.957M79.1723 827.409V879.872M79.1723 827.409H125.957M79.1723 879.872V932.335M79.1723 879.872H125.957M79.1723 932.335V984.798M79.1723 932.335H125.957M79.1723 984.798V1037.26M79.1723 984.798H125.957M79.1723 1037.26H125.957M125.957 -12V40.4631M125.957 -12H172.741M125.957 40.4631V92.9262M125.957 40.4631H172.741M125.957 92.9262V145.389M125.957 92.9262H172.741M125.957 145.389V197.852M125.957 145.389H172.741M125.957 197.852V250.315M125.957 197.852H172.741M125.957 250.315V302.778M125.957 250.315H172.741M125.957 302.778V355.242M125.957 302.778H172.741M125.957 355.242V407.705M125.957 355.242H172.741M125.957 407.705V460.168M125.957 407.705H172.741M125.957 460.168V512.631M125.957 460.168H172.741M125.957 512.631V565.094M125.957 512.631H172.741M125.957 565.094V617.557M125.957 565.094H172.741M125.957 617.557V670.02M125.957 617.557H172.741M125.957 670.02V722.483M125.957 670.02H172.741M125.957 722.483V774.946M125.957 722.483H172.741M125.957 774.946V827.409M125.957 774.946H172.741M125.957 827.409V879.872M125.957 827.409H172.741M125.957 879.872V932.335M125.957 879.872H172.741M125.957 932.335V984.798M125.957 932.335H172.741M125.957 984.798V1037.26M125.957 984.798H172.741M125.957 1037.26H172.741M172.741 -12V40.4631M172.741 -12H219.525M172.741 40.4631V92.9262M172.741 40.4631H219.525M172.741 92.9262V145.389M172.741 92.9262H219.525M172.741 145.389V197.852M172.741 145.389H219.525M172.741 197.852V250.315M172.741 197.852H219.525M172.741 250.315V302.778M172.741 250.315H219.525M172.741 302.778V355.242M172.741 302.778H219.525M172.741 355.242V407.705M172.741 355.242H219.525M172.741 407.705V460.168M172.741 407.705H219.525M172.741 460.168V512.631M172.741 460.168H219.525M172.741 512.631V565.094M172.741 512.631H219.525M172.741 565.094V617.557M172.741 565.094H219.525M172.741 617.557V670.02M172.741 617.557H219.525M172.741 670.02V722.483M172.741 670.02H219.525M172.741 722.483V774.946M172.741 722.483H219.525M172.741 774.946V827.409M172.741 774.946H219.525M172.741 827.409V879.872M172.741 827.409H219.525M172.741 879.872V932.335M172.741 879.872H219.525M172.741 932.335V984.798M172.741 932.335H219.525M172.741 984.798V1037.26M172.741 984.798H219.525M172.741 1037.26H219.525M219.525 -12V40.4631M219.525 -12H266.309M219.525 40.4631V92.9262M219.525 40.4631H266.309M219.525 92.9262V145.389M219.525 92.9262H266.309M219.525 145.389V197.852M219.525 145.389H266.309M219.525 197.852V250.315M219.525 197.852H266.309M219.525 250.315V302.778M219.525 250.315H266.309M219.525 302.778V355.242M219.525 302.778H266.309M219.525 355.242V407.705M219.525 355.242H266.309M219.525 407.705V460.168M219.525 407.705H266.309M219.525 460.168V512.631M219.525 460.168H266.309M219.525 512.631V565.094M219.525 512.631H266.309M219.525 565.094V617.557M219.525 565.094H266.309M219.525 617.557V670.02M219.525 617.557H266.309M219.525 670.02V722.483M219.525 670.02H266.309M219.525 722.483V774.946M219.525 722.483H266.309M219.525 774.946V827.409M219.525 774.946H266.309M219.525 827.409V879.872M219.525 827.409H266.309M219.525 879.872V932.335M219.525 879.872H266.309M219.525 932.335V984.798M219.525 932.335H266.309M219.525 984.798V1037.26M219.525 984.798H266.309M219.525 1037.26H266.309M266.309 -12V40.4631M266.309 -12H313.094M266.309 40.4631V92.9262M266.309 40.4631H313.094M266.309 92.9262V145.389M266.309 92.9262H313.094M266.309 145.389V197.852M266.309 145.389H313.094M266.309 197.852V250.315M266.309 197.852H313.094M266.309 250.315V302.778M266.309 250.315H313.094M266.309 302.778V355.242M266.309 302.778H313.094M266.309 355.242V407.705M266.309 355.242H313.094M266.309 407.705V460.168M266.309 407.705H313.094M266.309 460.168V512.631M266.309 460.168H313.094M266.309 512.631V565.094M266.309 512.631H313.094M266.309 565.094V617.557M266.309 565.094H313.094M266.309 617.557V670.02M266.309 617.557H313.094M266.309 670.02V722.483M266.309 670.02H313.094M266.309 722.483V774.946M266.309 722.483H313.094M266.309 774.946V827.409M266.309 774.946H313.094M266.309 827.409V879.872M266.309 827.409H313.094M266.309 879.872V932.335M266.309 879.872H313.094M266.309 932.335V984.798M266.309 932.335H313.094M266.309 984.798V1037.26M266.309 984.798H313.094M266.309 1037.26H313.094M313.094 -12V40.4631M313.094 -12H359.878M313.094 40.4631V92.9262M313.094 40.4631H359.878M313.094 92.9262V145.389M313.094 92.9262H359.878M313.094 145.389V197.852M313.094 145.389H359.878M313.094 197.852V250.315M313.094 197.852H359.878M313.094 250.315V302.778M313.094 250.315H359.878M313.094 302.778V355.242M313.094 302.778H359.878M313.094 355.242V407.705M313.094 355.242H359.878M313.094 407.705V460.168M313.094 407.705H359.878M313.094 460.168V512.631M313.094 460.168H359.878M313.094 512.631V565.094M313.094 512.631H359.878M313.094 565.094V617.557M313.094 565.094H359.878M313.094 617.557V670.02M313.094 617.557H359.878M313.094 670.02V722.483M313.094 670.02H359.878M313.094 722.483V774.946M313.094 722.483H359.878M313.094 774.946V827.409M313.094 774.946H359.878M313.094 827.409V879.872M313.094 827.409H359.878M313.094 879.872V932.335M313.094 879.872H359.878M313.094 932.335V984.798M313.094 932.335H359.878M313.094 984.798V1037.26M313.094 984.798H359.878M313.094 1037.26H359.878M359.878 -12V40.4631M359.878 -12H406.662M359.878 40.4631V92.9262M359.878 40.4631H406.662M359.878 92.9262V145.389M359.878 92.9262H406.662M359.878 145.389V197.852M359.878 145.389H406.662M359.878 197.852V250.315M359.878 197.852H406.662M359.878 250.315V302.778M359.878 250.315H406.662M359.878 302.778V355.242M359.878 302.778H406.662M359.878 355.242V407.705M359.878 355.242H406.662M359.878 407.705V460.168M359.878 407.705H406.662M359.878 460.168V512.631M359.878 460.168H406.662M359.878 512.631V565.094M359.878 512.631H406.662M359.878 565.094V617.557M359.878 565.094H406.662M359.878 617.557V670.02M359.878 617.557H406.662M359.878 670.02V722.483M359.878 670.02H406.662M359.878 722.483V774.946M359.878 722.483H406.662M359.878 774.946V827.409M359.878 774.946H406.662M359.878 827.409V879.872M359.878 827.409H406.662M359.878 879.872V932.335M359.878 879.872H406.662M359.878 932.335V984.798M359.878 932.335H406.662M359.878 984.798V1037.26M359.878 984.798H406.662M359.878 1037.26H406.662M406.662 -12V40.4631M406.662 -12H453.447M406.662 40.4631V92.9262M406.662 40.4631H453.447M406.662 92.9262V145.389M406.662 92.9262H453.447M406.662 145.389V197.852M406.662 145.389H453.447M406.662 197.852V250.315M406.662 197.852H453.447M406.662 250.315V302.778M406.662 250.315H453.447M406.662 302.778V355.242M406.662 302.778H453.447M406.662 355.242V407.705M406.662 355.242H453.447M406.662 407.705V460.168M406.662 407.705H453.447M406.662 460.168V512.631M406.662 460.168H453.447M406.662 512.631V565.094M406.662 512.631H453.447M406.662 565.094V617.557M406.662 565.094H453.447M406.662 617.557V670.02M406.662 617.557H453.447M406.662 670.02V722.483M406.662 670.02H453.447M406.662 722.483V774.946M406.662 722.483H453.447M406.662 774.946V827.409M406.662 774.946H453.447M406.662 827.409V879.872M406.662 827.409H453.447M406.662 879.872V932.335M406.662 879.872H453.447M406.662 932.335V984.798M406.662 932.335H453.447M406.662 984.798V1037.26M406.662 984.798H453.447M406.662 1037.26H453.447M453.447 -12V40.4631M453.447 -12H500.231M453.447 40.4631V92.9262M453.447 40.4631H500.231M453.447 92.9262V145.389M453.447 92.9262H500.231M453.447 145.389V197.852M453.447 145.389H500.231M453.447 197.852V250.315M453.447 197.852H500.231M453.447 250.315V302.778M453.447 250.315H500.231M453.447 302.778V355.242M453.447 302.778H500.231M453.447 355.242V407.705M453.447 355.242H500.231M453.447 407.705V460.168M453.447 407.705H500.231M453.447 460.168V512.631M453.447 460.168H500.231M453.447 512.631V565.094M453.447 512.631H500.231M453.447 565.094V617.557M453.447 565.094H500.231M453.447 617.557V670.02M453.447 617.557H500.231M453.447 670.02V722.483M453.447 670.02H500.231M453.447 722.483V774.946M453.447 722.483H500.231M453.447 774.946V827.409M453.447 774.946H500.231M453.447 827.409V879.872M453.447 827.409H500.231M453.447 879.872V932.335M453.447 879.872H500.231M453.447 932.335V984.798M453.447 932.335H500.231M453.447 984.798V1037.26M453.447 984.798H500.231M453.447 1037.26H500.231M500.231 -12V40.4631M500.231 -12H547.015M500.231 40.4631V92.9262M500.231 40.4631H547.015M500.231 92.9262V145.389M500.231 92.9262H547.015M500.231 145.389V197.852M500.231 145.389H547.015M500.231 197.852V250.315M500.231 197.852H547.015M500.231 250.315V302.778M500.231 250.315H547.015M500.231 302.778V355.242M500.231 302.778H547.015M500.231 355.242V407.705M500.231 355.242H547.015M500.231 407.705V460.168M500.231 407.705H547.015M500.231 460.168V512.631M500.231 460.168H547.015M500.231 512.631V565.094M500.231 512.631H547.015M500.231 565.094V617.557M500.231 565.094H547.015M500.231 617.557V670.02M500.231 617.557H547.015M500.231 670.02V722.483M500.231 670.02H547.015M500.231 722.483V774.946M500.231 722.483H547.015M500.231 774.946V827.409M500.231 774.946H547.015M500.231 827.409V879.872M500.231 827.409H547.015M500.231 879.872V932.335M500.231 879.872H547.015M500.231 932.335V984.798M500.231 932.335H547.015M500.231 984.798V1037.26M500.231 984.798H547.015M500.231 1037.26H547.015M547.015 -12V40.4631M547.015 -12H593.8M547.015 40.4631V92.9262M547.015 40.4631H593.8M547.015 92.9262V145.389M547.015 92.9262H593.8M547.015 145.389V197.852M547.015 145.389H593.8M547.015 197.852V250.315M547.015 197.852H593.8M547.015 250.315V302.778M547.015 250.315H593.8M547.015 302.778V355.242M547.015 302.778H593.8M547.015 355.242V407.705M547.015 355.242H593.8M547.015 407.705V460.168M547.015 407.705H593.8M547.015 460.168V512.631M547.015 460.168H593.8M547.015 512.631V565.094M547.015 512.631H593.8M547.015 565.094V617.557M547.015 565.094H593.8M547.015 617.557V670.02M547.015 617.557H593.8M547.015 670.02V722.483M547.015 670.02H593.8M547.015 722.483V774.946M547.015 722.483H593.8M547.015 774.946V827.409M547.015 774.946H593.8M547.015 827.409V879.872M547.015 827.409H593.8M547.015 879.872V932.335M547.015 879.872H593.8M547.015 932.335V984.798M547.015 932.335H593.8M547.015 984.798V1037.26M547.015 984.798H593.8M547.015 1037.26H593.8M593.8 -12V40.4631M593.8 -12H640.584M593.8 40.4631V92.9262M593.8 40.4631H640.584M593.8 92.9262V145.389M593.8 92.9262H640.584M593.8 145.389V197.852M593.8 145.389H640.584M593.8 197.852V250.315M593.8 197.852H640.584M593.8 250.315V302.778M593.8 250.315H640.584M593.8 302.778V355.242M593.8 302.778H640.584M593.8 355.242V407.705M593.8 355.242H640.584M593.8 407.705V460.168M593.8 407.705H640.584M593.8 460.168V512.631M593.8 460.168H640.584M593.8 512.631V565.094M593.8 512.631H640.584M593.8 565.094V617.557M593.8 565.094H640.584M593.8 617.557V670.02M593.8 617.557H640.584M593.8 670.02V722.483M593.8 670.02H640.584M593.8 722.483V774.946M593.8 722.483H640.584M593.8 774.946V827.409M593.8 774.946H640.584M593.8 827.409V879.872M593.8 827.409H640.584M593.8 879.872V932.335M593.8 879.872H640.584M593.8 932.335V984.798M593.8 932.335H640.584M593.8 984.798V1037.26M593.8 984.798H640.584M593.8 1037.26H640.584M640.584 -12V40.4631M640.584 -12H687.368M640.584 40.4631V92.9262M640.584 40.4631H687.368M640.584 92.9262V145.389M640.584 92.9262H687.368M640.584 145.389V197.852M640.584 145.389H687.368M640.584 197.852V250.315M640.584 197.852H687.368M640.584 250.315V302.778M640.584 250.315H687.368M640.584 302.778V355.242M640.584 302.778H687.368M640.584 355.242V407.705M640.584 355.242H687.368M640.584 407.705V460.168M640.584 407.705H687.368M640.584 460.168V512.631M640.584 460.168H687.368M640.584 512.631V565.094M640.584 512.631H687.368M640.584 565.094V617.557M640.584 565.094H687.368M640.584 617.557V670.02M640.584 617.557H687.368M640.584 670.02V722.483M640.584 670.02H687.368M640.584 722.483V774.946M640.584 722.483H687.368M640.584 774.946V827.409M640.584 774.946H687.368M640.584 827.409V879.872M640.584 827.409H687.368M640.584 879.872V932.335M640.584 879.872H687.368M640.584 932.335V984.798M640.584 932.335H687.368M640.584 984.798V1037.26M640.584 984.798H687.368M640.584 1037.26H687.368M687.368 -12V40.4631M687.368 -12H734.152M687.368 40.4631V92.9262M687.368 40.4631H734.152M687.368 92.9262V145.389M687.368 92.9262H734.152M687.368 145.389V197.852M687.368 145.389H734.152M687.368 197.852V250.315M687.368 197.852H734.152M687.368 250.315V302.778M687.368 250.315H734.152M687.368 302.778V355.242M687.368 302.778H734.152M687.368 355.242V407.705M687.368 355.242H734.152M687.368 407.705V460.168M687.368 407.705H734.152M687.368 460.168V512.631M687.368 460.168H734.152M687.368 512.631V565.094M687.368 512.631H734.152M687.368 565.094V617.557M687.368 565.094H734.152M687.368 617.557V670.02M687.368 617.557H734.152M687.368 670.02V722.483M687.368 670.02H734.152M687.368 722.483V774.946M687.368 722.483H734.152M687.368 774.946V827.409M687.368 774.946H734.152M687.368 827.409V879.872M687.368 827.409H734.152M687.368 879.872V932.335M687.368 879.872H734.152M687.368 932.335V984.798M687.368 932.335H734.152M687.368 984.798V1037.26M687.368 984.798H734.152M687.368 1037.26H734.152M734.152 -12V40.4631M734.152 -12H780.937M734.152 40.4631V92.9262M734.152 40.4631H780.937M734.152 92.9262V145.389M734.152 92.9262H780.937M734.152 145.389V197.852M734.152 145.389H780.937M734.152 197.852V250.315M734.152 197.852H780.937M734.152 250.315V302.778M734.152 250.315H780.937M734.152 302.778V355.242M734.152 302.778H780.937M734.152 355.242V407.705M734.152 355.242H780.937M734.152 407.705V460.168M734.152 407.705H780.937M734.152 460.168V512.631M734.152 460.168H780.937M734.152 512.631V565.094M734.152 512.631H780.937M734.152 565.094V617.557M734.152 565.094H780.937M734.152 617.557V670.02M734.152 617.557H780.937M734.152 670.02V722.483M734.152 670.02H780.937M734.152 722.483V774.946M734.152 722.483H780.937M734.152 774.946V827.409M734.152 774.946H780.937M734.152 827.409V879.872M734.152 827.409H780.937M734.152 879.872V932.335M734.152 879.872H780.937M734.152 932.335V984.798M734.152 932.335H780.937M734.152 984.798V1037.26M734.152 984.798H780.937M734.152 1037.26H780.937M780.937 -12V40.4631M780.937 -12H827.721M780.937 40.4631V92.9262M780.937 40.4631H827.721M780.937 92.9262V145.389M780.937 92.9262H827.721M780.937 145.389V197.852M780.937 145.389H827.721M780.937 197.852V250.315M780.937 197.852H827.721M780.937 250.315V302.778M780.937 250.315H827.721M780.937 302.778V355.242M780.937 302.778H827.721M780.937 355.242V407.705M780.937 355.242H827.721M780.937 407.705V460.168M780.937 407.705H827.721M780.937 460.168V512.631M780.937 460.168H827.721M780.937 512.631V565.094M780.937 512.631H827.721M780.937 565.094V617.557M780.937 565.094H827.721M780.937 617.557V670.02M780.937 617.557H827.721M780.937 670.02V722.483M780.937 670.02H827.721M780.937 722.483V774.946M780.937 722.483H827.721M780.937 774.946V827.409M780.937 774.946H827.721M780.937 827.409V879.872M780.937 827.409H827.721M780.937 879.872V932.335M780.937 879.872H827.721M780.937 932.335V984.798M780.937 932.335H827.721M780.937 984.798V1037.26M780.937 984.798H827.721M780.937 1037.26H827.721M827.721 -12V40.4631M827.721 -12H874.505M827.721 40.4631V92.9262M827.721 40.4631H874.505M827.721 92.9262V145.389M827.721 92.9262H874.505M827.721 145.389V197.852M827.721 145.389H874.505M827.721 197.852V250.315M827.721 197.852H874.505M827.721 250.315V302.778M827.721 250.315H874.505M827.721 302.778V355.242M827.721 302.778H874.505M827.721 355.242V407.705M827.721 355.242H874.505M827.721 407.705V460.168M827.721 407.705H874.505M827.721 460.168V512.631M827.721 460.168H874.505M827.721 512.631V565.094M827.721 512.631H874.505M827.721 565.094V617.557M827.721 565.094H874.505M827.721 617.557V670.02M827.721 617.557H874.505M827.721 670.02V722.483M827.721 670.02H874.505M827.721 722.483V774.946M827.721 722.483H874.505M827.721 774.946V827.409M827.721 774.946H874.505M827.721 827.409V879.872M827.721 827.409H874.505M827.721 879.872V932.335M827.721 879.872H874.505M827.721 932.335V984.798M827.721 932.335H874.505M827.721 984.798V1037.26M827.721 984.798H874.505M827.721 1037.26H874.505M874.505 -12V40.4631M874.505 -12H921.29M874.505 40.4631V92.9262M874.505 40.4631H921.29M874.505 92.9262V145.389M874.505 92.9262H921.29M874.505 145.389V197.852M874.505 145.389H921.29M874.505 197.852V250.315M874.505 197.852H921.29M874.505 250.315V302.778M874.505 250.315H921.29M874.505 302.778V355.242M874.505 302.778H921.29M874.505 355.242V407.705M874.505 355.242H921.29M874.505 407.705V460.168M874.505 407.705H921.29M874.505 460.168V512.631M874.505 460.168H921.29M874.505 512.631V565.094M874.505 512.631H921.29M874.505 565.094V617.557M874.505 565.094H921.29M874.505 617.557V670.02M874.505 617.557H921.29M874.505 670.02V722.483M874.505 670.02H921.29M874.505 722.483V774.946M874.505 722.483H921.29M874.505 774.946V827.409M874.505 774.946H921.29M874.505 827.409V879.872M874.505 827.409H921.29M874.505 879.872V932.335M874.505 879.872H921.29M874.505 932.335V984.798M874.505 932.335H921.29M874.505 984.798V1037.26M874.505 984.798H921.29M874.505 1037.26H921.29M921.29 -12V40.4631M921.29 -12H968.074M921.29 40.4631V92.9262M921.29 40.4631H968.074M921.29 92.9262V145.389M921.29 92.9262H968.074M921.29 145.389V197.852M921.29 145.389H968.074M921.29 197.852V250.315M921.29 197.852H968.074M921.29 250.315V302.778M921.29 250.315H968.074M921.29 302.778V355.242M921.29 302.778H968.074M921.29 355.242V407.705M921.29 355.242H968.074M921.29 407.705V460.168M921.29 407.705H968.074M921.29 460.168V512.631M921.29 460.168H968.074M921.29 512.631V565.094M921.29 512.631H968.074M921.29 565.094V617.557M921.29 565.094H968.074M921.29 617.557V670.02M921.29 617.557H968.074M921.29 670.02V722.483M921.29 670.02H968.074M921.29 722.483V774.946M921.29 722.483H968.074M921.29 774.946V827.409M921.29 774.946H968.074M921.29 827.409V879.872M921.29 827.409H968.074M921.29 879.872V932.335M921.29 879.872H968.074M921.29 932.335V984.798M921.29 932.335H968.074M921.29 984.798V1037.26M921.29 984.798H968.074M921.29 1037.26H968.074M968.074 -12V40.4631M968.074 -12H1014.86M968.074 40.4631V92.9262M968.074 40.4631H1014.86M968.074 92.9262V145.389M968.074 92.9262H1014.86M968.074 145.389V197.852M968.074 145.389H1014.86M968.074 197.852V250.315M968.074 197.852H1014.86M968.074 250.315V302.778M968.074 250.315H1014.86M968.074 302.778V355.242M968.074 302.778H1014.86M968.074 355.242V407.705M968.074 355.242H1014.86M968.074 407.705V460.168M968.074 407.705H1014.86M968.074 460.168V512.631M968.074 460.168H1014.86M968.074 512.631V565.094M968.074 512.631H1014.86M968.074 565.094V617.557M968.074 565.094H1014.86M968.074 617.557V670.02M968.074 617.557H1014.86M968.074 670.02V722.483M968.074 670.02H1014.86M968.074 722.483V774.946M968.074 722.483H1014.86M968.074 774.946V827.409M968.074 774.946H1014.86M968.074 827.409V879.872M968.074 827.409H1014.86M968.074 879.872V932.335M968.074 879.872H1014.86M968.074 932.335V984.798M968.074 932.335H1014.86M968.074 984.798V1037.26M968.074 984.798H1014.86M968.074 1037.26H1014.86M1014.86 -12V40.4631M1014.86 -12H1061.64M1014.86 40.4631V92.9262M1014.86 40.4631H1061.64M1014.86 92.9262V145.389M1014.86 92.9262H1061.64M1014.86 145.389V197.852M1014.86 145.389H1061.64M1014.86 197.852V250.315M1014.86 197.852H1061.64M1014.86 250.315V302.778M1014.86 250.315H1061.64M1014.86 302.778V355.242M1014.86 302.778H1061.64M1014.86 355.242V407.705M1014.86 355.242H1061.64M1014.86 407.705V460.168M1014.86 407.705H1061.64M1014.86 460.168V512.631M1014.86 460.168H1061.64M1014.86 512.631V565.094M1014.86 512.631H1061.64M1014.86 565.094V617.557M1014.86 565.094H1061.64M1014.86 617.557V670.02M1014.86 617.557H1061.64M1014.86 670.02V722.483M1014.86 670.02H1061.64M1014.86 722.483V774.946M1014.86 722.483H1061.64M1014.86 774.946V827.409M1014.86 774.946H1061.64M1014.86 827.409V879.872M1014.86 827.409H1061.64M1014.86 879.872V932.335M1014.86 879.872H1061.64M1014.86 932.335V984.798M1014.86 932.335H1061.64M1014.86 984.798V1037.26M1014.86 984.798H1061.64M1014.86 1037.26H1061.64M1061.64 -12V40.4631M1061.64 -12H1108.43M1061.64 40.4631V92.9262M1061.64 40.4631H1108.43M1061.64 92.9262V145.389M1061.64 92.9262H1108.43M1061.64 145.389V197.852M1061.64 145.389H1108.43M1061.64 197.852V250.315M1061.64 197.852H1108.43M1061.64 250.315V302.778M1061.64 250.315H1108.43M1061.64 302.778V355.242M1061.64 302.778H1108.43M1061.64 355.242V407.705M1061.64 355.242H1108.43M1061.64 407.705V460.168M1061.64 407.705H1108.43M1061.64 460.168V512.631M1061.64 460.168H1108.43M1061.64 512.631V565.094M1061.64 512.631H1108.43M1061.64 565.094V617.557M1061.64 565.094H1108.43M1061.64 617.557V670.02M1061.64 617.557H1108.43M1061.64 670.02V722.483M1061.64 670.02H1108.43M1061.64 722.483V774.946M1061.64 722.483H1108.43M1061.64 774.946V827.409M1061.64 774.946H1108.43M1061.64 827.409V879.872M1061.64 827.409H1108.43M1061.64 879.872V932.335M1061.64 879.872H1108.43M1061.64 932.335V984.798M1061.64 932.335H1108.43M1061.64 984.798V1037.26M1061.64 984.798H1108.43M1061.64 1037.26H1108.43M1108.43 -12V40.4631M1108.43 -12H1155.21M1108.43 40.4631V92.9262M1108.43 40.4631H1155.21M1108.43 92.9262V145.389M1108.43 92.9262H1155.21M1108.43 145.389V197.852M1108.43 145.389H1155.21M1108.43 197.852V250.315M1108.43 197.852H1155.21M1108.43 250.315V302.778M1108.43 250.315H1155.21M1108.43 302.778V355.242M1108.43 302.778H1155.21M1108.43 355.242V407.705M1108.43 355.242H1155.21M1108.43 407.705V460.168M1108.43 407.705H1155.21M1108.43 460.168V512.631M1108.43 460.168H1155.21M1108.43 512.631V565.094M1108.43 512.631H1155.21M1108.43 565.094V617.557M1108.43 565.094H1155.21M1108.43 617.557V670.02M1108.43 617.557H1155.21M1108.43 670.02V722.483M1108.43 670.02H1155.21M1108.43 722.483V774.946M1108.43 722.483H1155.21M1108.43 774.946V827.409M1108.43 774.946H1155.21M1108.43 827.409V879.872M1108.43 827.409H1155.21M1108.43 879.872V932.335M1108.43 879.872H1155.21M1108.43 932.335V984.798M1108.43 932.335H1155.21M1108.43 984.798V1037.26M1108.43 984.798H1155.21M1108.43 1037.26H1155.21M1155.21 -12V40.4631M1155.21 -12H1202M1155.21 40.4631V92.9262M1155.21 40.4631H1202M1155.21 92.9262V145.389M1155.21 92.9262H1202M1155.21 145.389V197.852M1155.21 145.389H1202M1155.21 197.852V250.315M1155.21 197.852H1202M1155.21 250.315V302.778M1155.21 250.315H1202M1155.21 302.778V355.242M1155.21 302.778H1202M1155.21 355.242V407.705M1155.21 355.242H1202M1155.21 407.705V460.168M1155.21 407.705H1202M1155.21 460.168V512.631M1155.21 460.168H1202M1155.21 512.631V565.094M1155.21 512.631H1202M1155.21 565.094V617.557M1155.21 565.094H1202M1155.21 617.557V670.02M1155.21 617.557H1202M1155.21 670.02V722.483M1155.21 670.02H1202M1155.21 722.483V774.946M1155.21 722.483H1202M1155.21 774.946V827.409M1155.21 774.946H1202M1155.21 827.409V879.872M1155.21 827.409H1202M1155.21 879.872V932.335M1155.21 879.872H1202M1155.21 932.335V984.798M1155.21 932.335H1202M1155.21 984.798V1037.26M1155.21 984.798H1202M1155.21 1037.26H1202M1202 -12V40.4631M1202 -12H1248.78M1202 40.4631V92.9262M1202 40.4631H1248.78M1202 92.9262V145.389M1202 92.9262H1248.78M1202 145.389V197.852M1202 145.389H1248.78M1202 197.852V250.315M1202 197.852H1248.78M1202 250.315V302.778M1202 250.315H1248.78M1202 302.778V355.242M1202 302.778H1248.78M1202 355.242V407.705M1202 355.242H1248.78M1202 407.705V460.168M1202 407.705H1248.78M1202 460.168V512.631M1202 460.168H1248.78M1202 512.631V565.094M1202 512.631H1248.78M1202 565.094V617.557M1202 565.094H1248.78M1202 617.557V670.02M1202 617.557H1248.78M1202 670.02V722.483M1202 670.02H1248.78M1202 722.483V774.946M1202 722.483H1248.78M1202 774.946V827.409M1202 774.946H1248.78M1202 827.409V879.872M1202 827.409H1248.78M1202 879.872V932.335M1202 879.872H1248.78M1202 932.335V984.798M1202 932.335H1248.78M1202 984.798V1037.26M1202 984.798H1248.78M1202 1037.26H1248.78M1248.78 -12V40.4631M1248.78 -12H1295.56M1248.78 40.4631V92.9262M1248.78 40.4631H1295.56M1248.78 92.9262V145.389M1248.78 92.9262H1295.56M1248.78 145.389V197.852M1248.78 145.389H1295.56M1248.78 197.852V250.315M1248.78 197.852H1295.56M1248.78 250.315V302.778M1248.78 250.315H1295.56M1248.78 302.778V355.242M1248.78 302.778H1295.56M1248.78 355.242V407.705M1248.78 355.242H1295.56M1248.78 407.705V460.168M1248.78 407.705H1295.56M1248.78 460.168V512.631M1248.78 460.168H1295.56M1248.78 512.631V565.094M1248.78 512.631H1295.56M1248.78 565.094V617.557M1248.78 565.094H1295.56M1248.78 617.557V670.02M1248.78 617.557H1295.56M1248.78 670.02V722.483M1248.78 670.02H1295.56M1248.78 722.483V774.946M1248.78 722.483H1295.56M1248.78 774.946V827.409M1248.78 774.946H1295.56M1248.78 827.409V879.872M1248.78 827.409H1295.56M1248.78 879.872V932.335M1248.78 879.872H1295.56M1248.78 932.335V984.798M1248.78 932.335H1295.56M1248.78 984.798V1037.26M1248.78 984.798H1295.56M1248.78 1037.26H1295.56M1295.56 -12V40.4631M1295.56 -12H1342.35M1295.56 40.4631V92.9262M1295.56 40.4631H1342.35M1295.56 92.9262V145.389M1295.56 92.9262H1342.35M1295.56 145.389V197.852M1295.56 145.389H1342.35M1295.56 197.852V250.315M1295.56 197.852H1342.35M1295.56 250.315V302.778M1295.56 250.315H1342.35M1295.56 302.778V355.242M1295.56 302.778H1342.35M1295.56 355.242V407.705M1295.56 355.242H1342.35M1295.56 407.705V460.168M1295.56 407.705H1342.35M1295.56 460.168V512.631M1295.56 460.168H1342.35M1295.56 512.631V565.094M1295.56 512.631H1342.35M1295.56 565.094V617.557M1295.56 565.094H1342.35M1295.56 617.557V670.02M1295.56 617.557H1342.35M1295.56 670.02V722.483M1295.56 670.02H1342.35M1295.56 722.483V774.946M1295.56 722.483H1342.35M1295.56 774.946V827.409M1295.56 774.946H1342.35M1295.56 827.409V879.872M1295.56 827.409H1342.35M1295.56 879.872V932.335M1295.56 879.872H1342.35M1295.56 932.335V984.798M1295.56 932.335H1342.35M1295.56 984.798V1037.26M1295.56 984.798H1342.35M1295.56 1037.26H1342.35M1342.35 -12V40.4631M1342.35 -12H1389.13M1342.35 40.4631V92.9262M1342.35 40.4631H1389.13M1342.35 92.9262V145.389M1342.35 92.9262H1389.13M1342.35 145.389V197.852M1342.35 145.389H1389.13M1342.35 197.852V250.315M1342.35 197.852H1389.13M1342.35 250.315V302.778M1342.35 250.315H1389.13M1342.35 302.778V355.242M1342.35 302.778H1389.13M1342.35 355.242V407.705M1342.35 355.242H1389.13M1342.35 407.705V460.168M1342.35 407.705H1389.13M1342.35 460.168V512.631M1342.35 460.168H1389.13M1342.35 512.631V565.094M1342.35 512.631H1389.13M1342.35 565.094V617.557M1342.35 565.094H1389.13M1342.35 617.557V670.02M1342.35 617.557H1389.13M1342.35 670.02V722.483M1342.35 670.02H1389.13M1342.35 722.483V774.946M1342.35 722.483H1389.13M1342.35 774.946V827.409M1342.35 774.946H1389.13M1342.35 827.409V879.872M1342.35 827.409H1389.13M1342.35 879.872V932.335M1342.35 879.872H1389.13M1342.35 932.335V984.798M1342.35 932.335H1389.13M1342.35 984.798V1037.26M1342.35 984.798H1389.13M1342.35 1037.26H1389.13M1389.13 -12V40.4631M1389.13 -12H1435.92M1389.13 40.4631V92.9262M1389.13 40.4631H1435.92M1389.13 92.9262V145.389M1389.13 92.9262H1435.92M1389.13 145.389V197.852M1389.13 145.389H1435.92M1389.13 197.852V250.315M1389.13 197.852H1435.92M1389.13 250.315V302.778M1389.13 250.315H1435.92M1389.13 302.778V355.242M1389.13 302.778H1435.92M1389.13 355.242V407.705M1389.13 355.242H1435.92M1389.13 407.705V460.168M1389.13 407.705H1435.92M1389.13 460.168V512.631M1389.13 460.168H1435.92M1389.13 512.631V565.094M1389.13 512.631H1435.92M1389.13 565.094V617.557M1389.13 565.094H1435.92M1389.13 617.557V670.02M1389.13 617.557H1435.92M1389.13 670.02V722.483M1389.13 670.02H1435.92M1389.13 722.483V774.946M1389.13 722.483H1435.92M1389.13 774.946V827.409M1389.13 774.946H1435.92M1389.13 827.409V879.872M1389.13 827.409H1435.92M1389.13 879.872V932.335M1389.13 879.872H1435.92M1389.13 932.335V984.798M1389.13 932.335H1435.92M1389.13 984.798V1037.26M1389.13 984.798H1435.92M1389.13 1037.26H1435.92M1435.92 -12V40.4631M1435.92 -12H1482.7M1435.92 40.4631V92.9262M1435.92 40.4631H1482.7M1435.92 92.9262V145.389M1435.92 92.9262H1482.7M1435.92 145.389V197.852M1435.92 145.389H1482.7M1435.92 197.852V250.315M1435.92 197.852H1482.7M1435.92 250.315V302.778M1435.92 250.315H1482.7M1435.92 302.778V355.242M1435.92 302.778H1482.7M1435.92 355.242V407.705M1435.92 355.242H1482.7M1435.92 407.705V460.168M1435.92 407.705H1482.7M1435.92 460.168V512.631M1435.92 460.168H1482.7M1435.92 512.631V565.094M1435.92 512.631H1482.7M1435.92 565.094V617.557M1435.92 565.094H1482.7M1435.92 617.557V670.02M1435.92 617.557H1482.7M1435.92 670.02V722.483M1435.92 670.02H1482.7M1435.92 722.483V774.946M1435.92 722.483H1482.7M1435.92 774.946V827.409M1435.92 774.946H1482.7M1435.92 827.409V879.872M1435.92 827.409H1482.7M1435.92 879.872V932.335M1435.92 879.872H1482.7M1435.92 932.335V984.798M1435.92 932.335H1482.7M1435.92 984.798V1037.26M1435.92 984.798H1482.7M1435.92 1037.26H1482.7M1482.7 -12V40.4631M1482.7 -12H1529.49M1482.7 40.4631V92.9262M1482.7 40.4631H1529.49M1482.7 92.9262V145.389M1482.7 92.9262H1529.49M1482.7 145.389V197.852M1482.7 145.389H1529.49M1482.7 197.852V250.315M1482.7 197.852H1529.49M1482.7 250.315V302.778M1482.7 250.315H1529.49M1482.7 302.778V355.242M1482.7 302.778H1529.49M1482.7 355.242V407.705M1482.7 355.242H1529.49M1482.7 407.705V460.168M1482.7 407.705H1529.49M1482.7 460.168V512.631M1482.7 460.168H1529.49M1482.7 512.631V565.094M1482.7 512.631H1529.49M1482.7 565.094V617.557M1482.7 565.094H1529.49M1482.7 617.557V670.02M1482.7 617.557H1529.49M1482.7 670.02V722.483M1482.7 670.02H1529.49M1482.7 722.483V774.946M1482.7 722.483H1529.49M1482.7 774.946V827.409M1482.7 774.946H1529.49M1482.7 827.409V879.872M1482.7 827.409H1529.49M1482.7 879.872V932.335M1482.7 879.872H1529.49M1482.7 932.335V984.798M1482.7 932.335H1529.49M1482.7 984.798V1037.26M1482.7 984.798H1529.49M1482.7 1037.26H1529.49M1529.49 -12V40.4631M1529.49 -12H1576.27M1529.49 40.4631V92.9262M1529.49 40.4631H1576.27M1529.49 92.9262V145.389M1529.49 92.9262H1576.27M1529.49 145.389V197.852M1529.49 145.389H1576.27M1529.49 197.852V250.315M1529.49 197.852H1576.27M1529.49 250.315V302.778M1529.49 250.315H1576.27M1529.49 302.778V355.242M1529.49 302.778H1576.27M1529.49 355.242V407.705M1529.49 355.242H1576.27M1529.49 407.705V460.168M1529.49 407.705H1576.27M1529.49 460.168V512.631M1529.49 460.168H1576.27M1529.49 512.631V565.094M1529.49 512.631H1576.27M1529.49 565.094V617.557M1529.49 565.094H1576.27M1529.49 617.557V670.02M1529.49 617.557H1576.27M1529.49 670.02V722.483M1529.49 670.02H1576.27M1529.49 722.483V774.946M1529.49 722.483H1576.27M1529.49 774.946V827.409M1529.49 774.946H1576.27M1529.49 827.409V879.872M1529.49 827.409H1576.27M1529.49 879.872V932.335M1529.49 879.872H1576.27M1529.49 932.335V984.798M1529.49 932.335H1576.27M1529.49 984.798V1037.26M1529.49 984.798H1576.27M1529.49 1037.26H1576.27M1576.27 -12V40.4631M1576.27 -12H1623.05M1576.27 40.4631V92.9262M1576.27 40.4631H1623.05M1576.27 92.9262V145.389M1576.27 92.9262H1623.05M1576.27 145.389V197.852M1576.27 145.389H1623.05M1576.27 197.852V250.315M1576.27 197.852H1623.05M1576.27 250.315V302.778M1576.27 250.315H1623.05M1576.27 302.778V355.242M1576.27 302.778H1623.05M1576.27 355.242V407.705M1576.27 355.242H1623.05M1576.27 407.705V460.168M1576.27 407.705H1623.05M1576.27 460.168V512.631M1576.27 460.168H1623.05M1576.27 512.631V565.094M1576.27 512.631H1623.05M1576.27 565.094V617.557M1576.27 565.094H1623.05M1576.27 617.557V670.02M1576.27 617.557H1623.05M1576.27 670.02V722.483M1576.27 670.02H1623.05M1576.27 722.483V774.946M1576.27 722.483H1623.05M1576.27 774.946V827.409M1576.27 774.946H1623.05M1576.27 827.409V879.872M1576.27 827.409H1623.05M1576.27 879.872V932.335M1576.27 879.872H1623.05M1576.27 932.335V984.798M1576.27 932.335H1623.05M1576.27 984.798V1037.26M1576.27 984.798H1623.05M1576.27 1037.26H1623.05M1623.05 -12V40.4631M1623.05 -12H1669.84M1623.05 40.4631V92.9262M1623.05 40.4631H1669.84M1623.05 92.9262V145.389M1623.05 92.9262H1669.84M1623.05 145.389V197.852M1623.05 145.389H1669.84M1623.05 197.852V250.315M1623.05 197.852H1669.84M1623.05 250.315V302.778M1623.05 250.315H1669.84M1623.05 302.778V355.242M1623.05 302.778H1669.84M1623.05 355.242V407.705M1623.05 355.242H1669.84M1623.05 407.705V460.168M1623.05 407.705H1669.84M1623.05 460.168V512.631M1623.05 460.168H1669.84M1623.05 512.631V565.094M1623.05 512.631H1669.84M1623.05 565.094V617.557M1623.05 565.094H1669.84M1623.05 617.557V670.02M1623.05 617.557H1669.84M1623.05 670.02V722.483M1623.05 670.02H1669.84M1623.05 722.483V774.946M1623.05 722.483H1669.84M1623.05 774.946V827.409M1623.05 774.946H1669.84M1623.05 827.409V879.872M1623.05 827.409H1669.84M1623.05 879.872V932.335M1623.05 879.872H1669.84M1623.05 932.335V984.798M1623.05 932.335H1669.84M1623.05 984.798V1037.26M1623.05 984.798H1669.84M1623.05 1037.26H1669.84M1669.84 -12V40.4631M1669.84 -12H1716.62M1669.84 40.4631V92.9262M1669.84 40.4631H1716.62M1669.84 92.9262V145.389M1669.84 92.9262H1716.62M1669.84 145.389V197.852M1669.84 145.389H1716.62M1669.84 197.852V250.315M1669.84 197.852H1716.62M1669.84 250.315V302.778M1669.84 250.315H1716.62M1669.84 302.778V355.242M1669.84 302.778H1716.62M1669.84 355.242V407.705M1669.84 355.242H1716.62M1669.84 407.705V460.168M1669.84 407.705H1716.62M1669.84 460.168V512.631M1669.84 460.168H1716.62M1669.84 512.631V565.094M1669.84 512.631H1716.62M1669.84 565.094V617.557M1669.84 565.094H1716.62M1669.84 617.557V670.02M1669.84 617.557H1716.62M1669.84 670.02V722.483M1669.84 670.02H1716.62M1669.84 722.483V774.946M1669.84 722.483H1716.62M1669.84 774.946V827.409M1669.84 774.946H1716.62M1669.84 827.409V879.872M1669.84 827.409H1716.62M1669.84 879.872V932.335M1669.84 879.872H1716.62M1669.84 932.335V984.798M1669.84 932.335H1716.62M1669.84 984.798V1037.26M1669.84 984.798H1716.62M1669.84 1037.26H1716.62M1716.62 -12V40.4631M1716.62 -12H1763.41M1716.62 40.4631V92.9262M1716.62 40.4631H1763.41M1716.62 92.9262V145.389M1716.62 92.9262H1763.41M1716.62 145.389V197.852M1716.62 145.389H1763.41M1716.62 197.852V250.315M1716.62 197.852H1763.41M1716.62 250.315V302.778M1716.62 250.315H1763.41M1716.62 302.778V355.242M1716.62 302.778H1763.41M1716.62 355.242V407.705M1716.62 355.242H1763.41M1716.62 407.705V460.168M1716.62 407.705H1763.41M1716.62 460.168V512.631M1716.62 460.168H1763.41M1716.62 512.631V565.094M1716.62 512.631H1763.41M1716.62 565.094V617.557M1716.62 565.094H1763.41M1716.62 617.557V670.02M1716.62 617.557H1763.41M1716.62 670.02V722.483M1716.62 670.02H1763.41M1716.62 722.483V774.946M1716.62 722.483H1763.41M1716.62 774.946V827.409M1716.62 774.946H1763.41M1716.62 827.409V879.872M1716.62 827.409H1763.41M1716.62 879.872V932.335M1716.62 879.872H1763.41M1716.62 932.335V984.798M1716.62 932.335H1763.41M1716.62 984.798V1037.26M1716.62 984.798H1763.41M1716.62 1037.26H1763.41M1763.41 -12V40.4631M1763.41 -12H1810.19M1763.41 40.4631V92.9262M1763.41 40.4631H1810.19M1763.41 92.9262V145.389M1763.41 92.9262H1810.19M1763.41 145.389V197.852M1763.41 145.389H1810.19M1763.41 197.852V250.315M1763.41 197.852H1810.19M1763.41 250.315V302.778M1763.41 250.315H1810.19M1763.41 302.778V355.242M1763.41 302.778H1810.19M1763.41 355.242V407.705M1763.41 355.242H1810.19M1763.41 407.705V460.168M1763.41 407.705H1810.19M1763.41 460.168V512.631M1763.41 460.168H1810.19M1763.41 512.631V565.094M1763.41 512.631H1810.19M1763.41 565.094V617.557M1763.41 565.094H1810.19M1763.41 617.557V670.02M1763.41 617.557H1810.19M1763.41 670.02V722.483M1763.41 670.02H1810.19M1763.41 722.483V774.946M1763.41 722.483H1810.19M1763.41 774.946V827.409M1763.41 774.946H1810.19M1763.41 827.409V879.872M1763.41 827.409H1810.19M1763.41 879.872V932.335M1763.41 879.872H1810.19M1763.41 932.335V984.798M1763.41 932.335H1810.19M1763.41 984.798V1037.26M1763.41 984.798H1810.19M1763.41 1037.26H1810.19M1810.19 -12V40.4631M1810.19 -12H1856.98M1810.19 40.4631V92.9262M1810.19 40.4631H1856.98M1810.19 92.9262V145.389M1810.19 92.9262H1856.98M1810.19 145.389V197.852M1810.19 145.389H1856.98M1810.19 197.852V250.315M1810.19 197.852H1856.98M1810.19 250.315V302.778M1810.19 250.315H1856.98M1810.19 302.778V355.242M1810.19 302.778H1856.98M1810.19 355.242V407.705M1810.19 355.242H1856.98M1810.19 407.705V460.168M1810.19 407.705H1856.98M1810.19 460.168V512.631M1810.19 460.168H1856.98M1810.19 512.631V565.094M1810.19 512.631H1856.98M1810.19 565.094V617.557M1810.19 565.094H1856.98M1810.19 617.557V670.02M1810.19 617.557H1856.98M1810.19 670.02V722.483M1810.19 670.02H1856.98M1810.19 722.483V774.946M1810.19 722.483H1856.98M1810.19 774.946V827.409M1810.19 774.946H1856.98M1810.19 827.409V879.872M1810.19 827.409H1856.98M1810.19 879.872V932.335M1810.19 879.872H1856.98M1810.19 932.335V984.798M1810.19 932.335H1856.98M1810.19 984.798V1037.26M1810.19 984.798H1856.98M1810.19 1037.26H1856.98M1856.98 -12V40.4631M1856.98 -12H1903.76M1856.98 40.4631V92.9262M1856.98 40.4631H1903.76M1856.98 92.9262V145.389M1856.98 92.9262H1903.76M1856.98 145.389V197.852M1856.98 145.389H1903.76M1856.98 197.852V250.315M1856.98 197.852H1903.76M1856.98 250.315V302.778M1856.98 250.315H1903.76M1856.98 302.778V355.242M1856.98 302.778H1903.76M1856.98 355.242V407.705M1856.98 355.242H1903.76M1856.98 407.705V460.168M1856.98 407.705H1903.76M1856.98 460.168V512.631M1856.98 460.168H1903.76M1856.98 512.631V565.094M1856.98 512.631H1903.76M1856.98 565.094V617.557M1856.98 565.094H1903.76M1856.98 617.557V670.02M1856.98 617.557H1903.76M1856.98 670.02V722.483M1856.98 670.02H1903.76M1856.98 722.483V774.946M1856.98 722.483H1903.76M1856.98 774.946V827.409M1856.98 774.946H1903.76M1856.98 827.409V879.872M1856.98 827.409H1903.76M1856.98 879.872V932.335M1856.98 879.872H1903.76M1856.98 932.335V984.798M1856.98 932.335H1903.76M1856.98 984.798V1037.26M1856.98 984.798H1903.76M1856.98 1037.26H1903.76M1903.76 -12V40.4631M1903.76 -12H1950.54V40.4631M1903.76 40.4631V92.9262M1903.76 40.4631H1950.54M1903.76 92.9262V145.389M1903.76 92.9262H1950.54M1903.76 145.389V197.852M1903.76 145.389H1950.54M1903.76 197.852V250.315M1903.76 197.852H1950.54M1903.76 250.315V302.778M1903.76 250.315H1950.54M1903.76 302.778V355.242M1903.76 302.778H1950.54M1903.76 355.242V407.705M1903.76 355.242H1950.54M1903.76 407.705V460.168M1903.76 407.705H1950.54M1903.76 460.168V512.631M1903.76 460.168H1950.54M1903.76 512.631V565.094M1903.76 512.631H1950.54M1903.76 565.094V617.557M1903.76 565.094H1950.54M1903.76 617.557V670.02M1903.76 617.557H1950.54M1903.76 670.02V722.483M1903.76 670.02H1950.54M1903.76 722.483V774.946M1903.76 722.483H1950.54M1903.76 774.946V827.409M1903.76 774.946H1950.54M1903.76 827.409V879.872M1903.76 827.409H1950.54M1903.76 879.872V932.335M1903.76 879.872H1950.54M1903.76 932.335V984.798M1903.76 932.335H1950.54M1903.76 984.798V1037.26M1903.76 984.798H1950.54M1903.76 1037.26H1950.54V984.798M1950.54 40.4631V92.9262M1950.54 92.9262V145.389M1950.54 145.389V197.852M1950.54 197.852V250.315M1950.54 250.315V302.778M1950.54 302.778V355.242M1950.54 355.242V407.705M1950.54 407.705V460.168M1950.54 460.168V512.631M1950.54 512.631V565.094M1950.54 565.094V617.557M1950.54 617.557V670.02M1950.54 670.02V722.483M1950.54 722.483V774.946M1950.54 774.946V827.409M1950.54 827.409V879.872M1950.54 879.872V932.335M1950.54 932.335V984.798" stroke="url(#paint4_linear_4166_15923)" stroke-width="0.584804"/>
<path opacity="0.1" d="M79.1725 182.113V197.852M79.1725 197.852V213.591M79.1725 197.852H65.1372M79.1725 197.852H93.2078M79.1725 601.818V617.557M79.1725 617.557V633.296M79.1725 617.557H65.1372M79.1725 617.557H93.2078M79.1725 1021.52V1037.26M79.1725 1037.26V1053M79.1725 1037.26H65.1372M79.1725 1037.26H93.2078M453.447 182.113V197.852M453.447 197.852V213.591M453.447 197.852H439.412M453.447 197.852H467.482M453.447 601.818V617.557M453.447 617.557V633.296M453.447 617.557H439.412M453.447 617.557H467.482M453.447 1021.52V1037.26M453.447 1037.26V1053M453.447 1037.26H439.412M453.447 1037.26H467.482M827.721 182.113V197.852M827.721 197.852V213.591M827.721 197.852H813.686M827.721 197.852H841.756M827.721 601.818V617.557M827.721 617.557V633.296M827.721 617.557H813.686M827.721 617.557H841.756M827.721 1021.52V1037.26M827.721 1037.26V1053M827.721 1037.26H813.686M827.721 1037.26H841.756M1202 182.113V197.852M1202 197.852V213.591M1202 197.852H1187.96M1202 197.852H1216.03M1202 601.818V617.557M1202 617.557V633.296M1202 617.557H1187.96M1202 617.557H1216.03M1202 1021.52V1037.26M1202 1037.26V1053M1202 1037.26H1187.96M1202 1037.26H1216.03M1576.27 182.113V197.852M1576.27 197.852V213.591M1576.27 197.852H1562.23M1576.27 197.852H1590.31M1576.27 601.818V617.557M1576.27 617.557V633.296M1576.27 617.557H1562.23M1576.27 617.557H1590.31M1576.27 1021.52V1037.26M1576.27 1037.26V1053M1576.27 1037.26H1562.23M1576.27 1037.26H1590.31M1950.54 182.113V197.852M1950.54 197.852V213.591M1950.54 197.852H1936.51M1950.54 197.852H1964.58M1950.54 601.818V617.557M1950.54 617.557V633.296M1950.54 617.557H1936.51M1950.54 617.557H1964.58M1950.54 1021.52V1037.26M1950.54 1037.26V1053M1950.54 1037.26H1936.51M1950.54 1037.26H1964.58M79.1725 391.966V407.705M79.1725 407.705V423.444M79.1725 407.705H65.1372M79.1725 407.705H93.2078M79.1725 811.67V827.409M79.1725 827.409V843.148M79.1725 827.409H65.1372M79.1725 827.409H93.2078M453.447 391.966V407.705M453.447 407.705V423.444M453.447 407.705H439.412M453.447 407.705H467.482M453.447 811.67V827.409M453.447 827.409V843.148M453.447 827.409H439.412M453.447 827.409H467.482M827.721 391.966V407.705M827.721 407.705V423.444M827.721 407.705H813.686M827.721 407.705H841.756M827.721 811.67V827.409M827.721 827.409V843.148M827.721 827.409H813.686M827.721 827.409H841.756M1202 391.966V407.705M1202 407.705V423.444M1202 407.705H1187.96M1202 407.705H1216.03M1202 811.67V827.409M1202 827.409V843.148M1202 827.409H1187.96M1202 827.409H1216.03M1576.27 391.966V407.705M1576.27 407.705V423.444M1576.27 407.705H1562.23M1576.27 407.705H1590.31M1576.27 811.67V827.409M1576.27 827.409V843.148M1576.27 827.409H1562.23M1576.27 827.409H1590.31M1950.54 391.966V407.705M1950.54 407.705V423.444M1950.54 407.705H1936.51M1950.54 407.705H1964.58M1950.54 811.67V827.409M1950.54 827.409V843.148M1950.54 827.409H1936.51M1950.54 827.409H1964.58M-107.965 182.113V197.852M-107.965 197.852V213.591M-107.965 197.852H-122M-107.965 197.852H-93.9294M-107.965 601.818V617.557M-107.965 617.557V633.296M-107.965 617.557H-122M-107.965 617.557H-93.9294M-107.965 1021.52V1037.26M-107.965 1037.26V1053M-107.965 1037.26H-122M-107.965 1037.26H-93.9294M266.31 182.113V197.852M266.31 197.852V213.591M266.31 197.852H252.274M266.31 197.852H280.345M266.31 601.818V617.557M266.31 617.557V633.296M266.31 617.557H252.274M266.31 617.557H280.345M266.31 1021.52V1037.26M266.31 1037.26V1053M266.31 1037.26H252.274M266.31 1037.26H280.345M640.584 182.113V197.852M640.584 197.852V213.591M640.584 197.852H626.549M640.584 197.852H654.619M640.584 601.818V617.557M640.584 617.557V633.296M640.584 617.557H626.549M640.584 617.557H654.619M640.584 1021.52V1037.26M640.584 1037.26V1053M640.584 1037.26H626.549M640.584 1037.26H654.619M1014.86 182.113V197.852M1014.86 197.852V213.591M1014.86 197.852H1000.82M1014.86 197.852H1028.89M1014.86 601.818V617.557M1014.86 617.557V633.296M1014.86 617.557H1000.82M1014.86 617.557H1028.89M1014.86 1021.52V1037.26M1014.86 1037.26V1053M1014.86 1037.26H1000.82M1014.86 1037.26H1028.89M1389.13 182.113V197.852M1389.13 197.852V213.591M1389.13 197.852H1375.1M1389.13 197.852H1403.17M1389.13 601.818V617.557M1389.13 617.557V633.296M1389.13 617.557H1375.1M1389.13 617.557H1403.17M1389.13 1021.52V1037.26M1389.13 1037.26V1053M1389.13 1037.26H1375.1M1389.13 1037.26H1403.17M1763.41 182.113V197.852M1763.41 197.852V213.591M1763.41 197.852H1749.37M1763.41 197.852H1777.44M1763.41 601.818V617.557M1763.41 617.557V633.296M1763.41 617.557H1749.37M1763.41 617.557H1777.44M1763.41 1021.52V1037.26M1763.41 1037.26V1053M1763.41 1037.26H1749.37M1763.41 1037.26H1777.44M-107.965 391.966V407.705M-107.965 407.705V423.444M-107.965 407.705H-122M-107.965 407.705H-93.9294M-107.965 811.67V827.409M-107.965 827.409V843.148M-107.965 827.409H-122M-107.965 827.409H-93.9294M266.31 391.966V407.705M266.31 407.705V423.444M266.31 407.705H252.274M266.31 407.705H280.345M266.31 811.67V827.409M266.31 827.409V843.148M266.31 827.409H252.274M266.31 827.409H280.345M640.584 391.966V407.705M640.584 407.705V423.444M640.584 407.705H626.549M640.584 407.705H654.619M640.584 811.67V827.409M640.584 827.409V843.148M640.584 827.409H626.549M640.584 827.409H654.619M1014.86 391.966V407.705M1014.86 407.705V423.444M1014.86 407.705H1000.82M1014.86 407.705H1028.89M1014.86 811.67V827.409M1014.86 827.409V843.148M1014.86 827.409H1000.82M1014.86 827.409H1028.89M1389.13 391.966V407.705M1389.13 407.705V423.444M1389.13 407.705H1375.1M1389.13 407.705H1403.17M1389.13 811.67V827.409M1389.13 827.409V843.148M1389.13 827.409H1375.1M1389.13 827.409H1403.17M1763.41 391.966V407.705M1763.41 407.705V423.444M1763.41 407.705H1749.37M1763.41 407.705H1777.44M1763.41 811.67V827.409M1763.41 827.409V843.148M1763.41 827.409H1749.37M1763.41 827.409H1777.44" stroke="#149E85" stroke-width="1.16961"/>
</g>
<defs>
<filter id="filter0_f_4166_15923" x="-1168.79" y="-673.663" width="2053.04" height="2049.31" filterUnits="userSpaceOnUse" color-interpolation-filters="sRGB">
<feFlood flood-opacity="0" result="BackgroundImageFix"/>
<feBlend mode="normal" in="SourceGraphic" in2="BackgroundImageFix" result="shape"/>
<feGaussianBlur stdDeviation="178.232" result="effect1_foregroundBlur_4166_15923"/>
</filter>
<filter id="filter1_f_4166_15923" x="-675.204" y="-1074.99" width="1612.29" height="1622.63" filterUnits="userSpaceOnUse" color-interpolation-filters="sRGB">
<feFlood flood-opacity="0" result="BackgroundImageFix"/>
<feBlend mode="normal" in="SourceGraphic" in2="BackgroundImageFix" result="shape"/>
<feGaussianBlur stdDeviation="178.232" result="effect1_foregroundBlur_4166_15923"/>
</filter>
<filter id="filter2_f_4166_15923" x="-803.888" y="-1087.46" width="1447.6" height="1456.52" filterUnits="userSpaceOnUse" color-interpolation-filters="sRGB">
<feFlood flood-opacity="0" result="BackgroundImageFix"/>
<feBlend mode="normal" in="SourceGraphic" in2="BackgroundImageFix" result="shape"/>
<feGaussianBlur stdDeviation="178.232" result="effect1_foregroundBlur_4166_15923"/>
</filter>
<filter id="filter3_f_4166_15923" x="-186.377" y="-425.428" width="1113.43" height="1292.36" filterUnits="userSpaceOnUse" color-interpolation-filters="sRGB">
<feFlood flood-opacity="0" result="BackgroundImageFix"/>
<feBlend mode="normal" in="SourceGraphic" in2="BackgroundImageFix" result="shape"/>
<feGaussianBlur stdDeviation="89.1162" result="effect1_foregroundBlur_4166_15923"/>
</filter>
<filter id="filter4_f_4166_15923" x="333.236" y="-426.622" width="768.988" height="1093.29" filterUnits="userSpaceOnUse" color-interpolation-filters="sRGB">
<feFlood flood-opacity="0" result="BackgroundImageFix"/>
<feBlend mode="normal" in="SourceGraphic" in2="BackgroundImageFix" result="shape"/>
<feGaussianBlur stdDeviation="89.1162" result="effect1_foregroundBlur_4166_15923"/>
</filter>
<filter id="filter5_f_4166_15923" x="-328.721" y="-193.918" width="857.407" height="986.865" filterUnits="userSpaceOnUse" color-interpolation-filters="sRGB">
<feFlood flood-opacity="0" result="BackgroundImageFix"/>
<feBlend mode="normal" in="SourceGraphic" in2="BackgroundImageFix" result="shape"/>
<feGaussianBlur stdDeviation="62.3814" result="effect1_foregroundBlur_4166_15923"/>
</filter>
<filter id="filter6_f_4166_15923" x="-774.887" y="-99.6505" width="1151.24" height="1144.72" filterUnits="userSpaceOnUse" color-interpolation-filters="sRGB">
<feFlood flood-opacity="0" result="BackgroundImageFix"/>
<feBlend mode="normal" in="SourceGraphic" in2="BackgroundImageFix" result="shape"/>
<feGaussianBlur stdDeviation="106.94" result="effect1_foregroundBlur_4166_15923"/>
</filter>
<filter id="filter7_f_4166_15923" x="987.753" y="-673.663" width="2053.04" height="2049.31" filterUnits="userSpaceOnUse" color-interpolation-filters="sRGB">
<feFlood flood-opacity="0" result="BackgroundImageFix"/>
<feBlend mode="normal" in="SourceGraphic" in2="BackgroundImageFix" result="shape"/>
<feGaussianBlur stdDeviation="178.232" result="effect1_foregroundBlur_4166_15923"/>
</filter>
<filter id="filter8_f_4166_15923" x="934.913" y="-1074.99" width="1612.29" height="1622.63" filterUnits="userSpaceOnUse" color-interpolation-filters="sRGB">
<feFlood flood-opacity="0" result="BackgroundImageFix"/>
<feBlend mode="normal" in="SourceGraphic" in2="BackgroundImageFix" result="shape"/>
<feGaussianBlur stdDeviation="178.232" result="effect1_foregroundBlur_4166_15923"/>
</filter>
<filter id="filter9_f_4166_15923" x="1228.29" y="-1087.46" width="1447.6" height="1456.52" filterUnits="userSpaceOnUse" color-interpolation-filters="sRGB">
<feFlood flood-opacity="0" result="BackgroundImageFix"/>
<feBlend mode="normal" in="SourceGraphic" in2="BackgroundImageFix" result="shape"/>
<feGaussianBlur stdDeviation="178.232" result="effect1_foregroundBlur_4166_15923"/>
</filter>
<filter id="filter10_f_4166_15923" x="944.947" y="-425.428" width="1113.43" height="1292.36" filterUnits="userSpaceOnUse" color-interpolation-filters="sRGB">
<feFlood flood-opacity="0" result="BackgroundImageFix"/>
<feBlend mode="normal" in="SourceGraphic" in2="BackgroundImageFix" result="shape"/>
<feGaussianBlur stdDeviation="89.1162" result="effect1_foregroundBlur_4166_15923"/>
</filter>
<filter id="filter11_f_4166_15923" x="769.775" y="-426.622" width="768.988" height="1093.29" filterUnits="userSpaceOnUse" color-interpolation-filters="sRGB">
<feFlood flood-opacity="0" result="BackgroundImageFix"/>
<feBlend mode="normal" in="SourceGraphic" in2="BackgroundImageFix" result="shape"/>
<feGaussianBlur stdDeviation="89.1162" result="effect1_foregroundBlur_4166_15923"/>
</filter>
<filter id="filter12_f_4166_15923" x="1343.31" y="-193.918" width="857.407" height="986.865" filterUnits="userSpaceOnUse" color-interpolation-filters="sRGB">
<feFlood flood-opacity="0" result="BackgroundImageFix"/>
<feBlend mode="normal" in="SourceGraphic" in2="BackgroundImageFix" result="shape"/>
<feGaussianBlur stdDeviation="62.3814" result="effect1_foregroundBlur_4166_15923"/>
</filter>
<filter id="filter13_f_4166_15923" x="1495.64" y="-99.6505" width="1151.24" height="1144.72" filterUnits="userSpaceOnUse" color-interpolation-filters="sRGB">
<feFlood flood-opacity="0" result="BackgroundImageFix"/>
<feBlend mode="normal" in="SourceGraphic" in2="BackgroundImageFix" result="shape"/>
<feGaussianBlur stdDeviation="106.94" result="effect1_foregroundBlur_4166_15923"/>
</filter>
<filter id="filter14_f_4166_15923" x="-446" y="381" width="1055.13" height="1031.8" filterUnits="userSpaceOnUse" color-interpolation-filters="sRGB">
<feFlood flood-opacity="0" result="BackgroundImageFix"/>
<feBlend mode="normal" in="SourceGraphic" in2="BackgroundImageFix" result="shape"/>
<feGaussianBlur stdDeviation="150" result="effect1_foregroundBlur_4166_15923"/>
</filter>
<filter id="filter15_f_4166_15923" x="1113" y="381" width="1055.13" height="1031.8" filterUnits="userSpaceOnUse" color-interpolation-filters="sRGB">
<feFlood flood-opacity="0" result="BackgroundImageFix"/>
<feBlend mode="normal" in="SourceGraphic" in2="BackgroundImageFix" result="shape"/>
<feGaussianBlur stdDeviation="150" result="effect1_foregroundBlur_4166_15923"/>
</filter>
<linearGradient id="paint0_linear_4166_15923" x1="-316.404" y1="698.904" x2="-142.271" y2="1024.18" gradientUnits="userSpaceOnUse">
<stop stop-color="white"/>
<stop offset="1" stop-color="#149E85"/>
</linearGradient>
<linearGradient id="paint1_linear_4166_15923" x1="303.831" y1="414.584" x2="-608.438" y2="-437.301" gradientUnits="userSpaceOnUse">
<stop stop-color="white"/>
<stop offset="1" stop-color="white" stop-opacity="0"/>
</linearGradient>
<linearGradient id="paint2_linear_4166_15923" x1="490.852" y1="1021.09" x2="664.985" y2="1346.37" gradientUnits="userSpaceOnUse">
<stop stop-color="white"/>
<stop offset="1" stop-color="#149E85"/>
</linearGradient>
<linearGradient id="paint3_linear_4166_15923" x1="1568.17" y1="414.584" x2="2480.44" y2="-437.301" gradientUnits="userSpaceOnUse">
<stop stop-color="white"/>
<stop offset="1" stop-color="white" stop-opacity="0"/>
</linearGradient>
<linearGradient id="paint4_linear_4166_15923" x1="1530" y1="44.0691" x2="-383.229" y2="541.137" gradientUnits="userSpaceOnUse">
<stop offset="0.620576" stop-opacity="0.7"/>
<stop offset="1" stop-opacity="0"/>
</linearGradient>
<clipPath id="clip0_4166_15923">
<rect width="1872" height="1029" fill="white"/>
</clipPath>
<clipPath id="clip1_4166_15923">
<rect width="1920" height="1048" fill="white" transform="translate(-24)"/>
</clipPath>
</defs>
</svg>
