<svg width="375" height="761" viewBox="0 0 375 761" fill="none" xmlns="http://www.w3.org/2000/svg">
<g filter="url(#filter0_f_4166_13183)">
<ellipse cx="241.598" cy="203.421" rx="241.598" ry="203.421" transform="matrix(-0.252669 -0.967553 0.382482 -0.923963 32.0889 761)" fill="url(#paint0_linear_4166_13183)" fill-opacity="0.45"/>
</g>
<g filter="url(#filter1_f_4166_13183)">
<ellipse cx="126.5" cy="84" rx="103.5" ry="225" fill="#B8FBF0" fill-opacity="0.4"/>
</g>
<g filter="url(#filter2_f_4166_13183)">
<ellipse cx="39.5" cy="81.5" rx="62.5" ry="227.5" fill="#B8FBF0" fill-opacity="0.35"/>
</g>
<g filter="url(#filter3_f_4166_13183)">
<path d="M174.401 475.103C195.125 317.84 162.383 124.232 68.6459 70.753C155.621 178.673 156.543 357.567 148.463 490.887L174.401 475.103Z" fill="white" fill-opacity="0.85"/>
</g>
<g filter="url(#filter4_f_4166_13183)">
<path d="M195.371 400.982C218.242 303.953 206.533 154.724 145.34 70.2135C198.898 188.524 189.644 311.42 176.748 398.526L195.371 400.982Z" fill="white" fill-opacity="0.85"/>
</g>
<g filter="url(#filter5_f_4166_13183)">
<path d="M125.032 468.35C140.956 342.889 114.323 190.231 39.7442 150.677C109.137 233.65 110.466 375.612 104.497 481.678L125.032 468.35Z" fill="url(#paint1_linear_4166_13183)" fill-opacity="0.7"/>
</g>
<g filter="url(#filter6_f_4166_13183)">
<path d="M93.0924 486.964C99.6191 353.952 62.6625 222.681 -12.9555 233.642C60.7214 268.497 -0.782148 447.384 1.01304 554.854L93.0924 486.964Z" fill="white" fill-opacity="0.8"/>
</g>
<g filter="url(#filter7_f_4166_13183)">
<ellipse cx="242.502" cy="205.16" rx="242.502" ry="205.16" transform="matrix(0.266088 -0.963949 -0.400876 -0.916132 333.947 761)" fill="url(#paint2_linear_4166_13183)" fill-opacity="0.45"/>
</g>
<g filter="url(#filter8_f_4166_13183)">
<ellipse cx="70.1582" cy="204.188" rx="70.1582" ry="204.188" transform="matrix(-1 0 0 1 343.763 -140.836)" fill="#B8FBF0" fill-opacity="0.4"/>
</g>
<g filter="url(#filter9_f_4166_13183)">
<ellipse cx="162" cy="227.5" rx="162" ry="227.5" transform="matrix(-1 0 0 1 436 -145)" fill="#B8FBF0" fill-opacity="0.35"/>
</g>
<g filter="url(#filter10_f_4166_13183)">
<path d="M183.515 475.102C161.609 317.84 196.219 124.232 295.303 70.753C203.367 178.673 202.392 357.567 210.933 490.887L183.515 475.102Z" fill="white" fill-opacity="0.85"/>
</g>
<g filter="url(#filter11_f_4166_13183)">
<path d="M161.35 400.982C137.174 303.953 149.551 154.724 214.235 70.2135C157.622 188.524 167.404 311.42 181.036 398.526L161.35 400.982Z" fill="white" fill-opacity="0.85"/>
</g>
<g filter="url(#filter12_f_4166_13183)">
<path d="M235.701 468.35C218.868 342.889 247.021 190.231 325.854 150.677C252.502 233.65 251.098 375.612 257.407 481.678L235.701 468.35Z" fill="url(#paint3_linear_4166_13183)" fill-opacity="0.7"/>
</g>
<g filter="url(#filter13_f_4166_13183)">
<path d="M269.464 486.964C262.565 353.952 301.63 222.681 381.562 233.642C303.681 268.497 368.694 447.384 366.796 554.854L269.464 486.964Z" fill="white" fill-opacity="0.8"/>
</g>
<defs>
<filter id="filter0_f_4166_13183" x="-121.456" y="-32.0801" width="340.611" height="742.735" filterUnits="userSpaceOnUse" color-interpolation-filters="sRGB">
<feFlood flood-opacity="0" result="BackgroundImageFix"/>
<feBlend mode="normal" in="SourceGraphic" in2="BackgroundImageFix" result="shape"/>
<feGaussianBlur stdDeviation="35.7036" result="effect1_foregroundBlur_4166_13183"/>
</filter>
<filter id="filter1_f_4166_13183" x="-48.4072" y="-212.407" width="349.814" height="592.814" filterUnits="userSpaceOnUse" color-interpolation-filters="sRGB">
<feFlood flood-opacity="0" result="BackgroundImageFix"/>
<feBlend mode="normal" in="SourceGraphic" in2="BackgroundImageFix" result="shape"/>
<feGaussianBlur stdDeviation="35.7036" result="effect1_foregroundBlur_4166_13183"/>
</filter>
<filter id="filter2_f_4166_13183" x="-94.4072" y="-217.407" width="267.814" height="597.814" filterUnits="userSpaceOnUse" color-interpolation-filters="sRGB">
<feFlood flood-opacity="0" result="BackgroundImageFix"/>
<feBlend mode="normal" in="SourceGraphic" in2="BackgroundImageFix" result="shape"/>
<feGaussianBlur stdDeviation="35.7036" result="effect1_foregroundBlur_4166_13183"/>
</filter>
<filter id="filter3_f_4166_13183" x="32.9419" y="35.0493" width="183.134" height="491.541" filterUnits="userSpaceOnUse" color-interpolation-filters="sRGB">
<feFlood flood-opacity="0" result="BackgroundImageFix"/>
<feBlend mode="normal" in="SourceGraphic" in2="BackgroundImageFix" result="shape"/>
<feGaussianBlur stdDeviation="17.8518" result="effect1_foregroundBlur_4166_13183"/>
</filter>
<filter id="filter4_f_4166_13183" x="109.636" y="34.5102" width="132.295" height="402.176" filterUnits="userSpaceOnUse" color-interpolation-filters="sRGB">
<feFlood flood-opacity="0" result="BackgroundImageFix"/>
<feBlend mode="normal" in="SourceGraphic" in2="BackgroundImageFix" result="shape"/>
<feGaussianBlur stdDeviation="17.8518" result="effect1_foregroundBlur_4166_13183"/>
</filter>
<filter id="filter5_f_4166_13183" x="14.7516" y="125.684" width="139.707" height="380.986" filterUnits="userSpaceOnUse" color-interpolation-filters="sRGB">
<feFlood flood-opacity="0" result="BackgroundImageFix"/>
<feBlend mode="normal" in="SourceGraphic" in2="BackgroundImageFix" result="shape"/>
<feGaussianBlur stdDeviation="12.4963" result="effect1_foregroundBlur_4166_13183"/>
</filter>
<filter id="filter6_f_4166_13183" x="-55.7994" y="190.157" width="192.473" height="407.542" filterUnits="userSpaceOnUse" color-interpolation-filters="sRGB">
<feFlood flood-opacity="0" result="BackgroundImageFix"/>
<feBlend mode="normal" in="SourceGraphic" in2="BackgroundImageFix" result="shape"/>
<feGaussianBlur stdDeviation="21.4222" result="effect1_foregroundBlur_4166_13183"/>
</filter>
<filter id="filter7_f_4166_13183" x="140.283" y="-32.0801" width="351.895" height="742.735" filterUnits="userSpaceOnUse" color-interpolation-filters="sRGB">
<feFlood flood-opacity="0" result="BackgroundImageFix"/>
<feBlend mode="normal" in="SourceGraphic" in2="BackgroundImageFix" result="shape"/>
<feGaussianBlur stdDeviation="35.7036" result="effect1_foregroundBlur_4166_13183"/>
</filter>
<filter id="filter8_f_4166_13183" x="132.039" y="-212.243" width="283.131" height="551.19" filterUnits="userSpaceOnUse" color-interpolation-filters="sRGB">
<feFlood flood-opacity="0" result="BackgroundImageFix"/>
<feBlend mode="normal" in="SourceGraphic" in2="BackgroundImageFix" result="shape"/>
<feGaussianBlur stdDeviation="35.7036" result="effect1_foregroundBlur_4166_13183"/>
</filter>
<filter id="filter9_f_4166_13183" x="40.5928" y="-216.407" width="466.814" height="597.814" filterUnits="userSpaceOnUse" color-interpolation-filters="sRGB">
<feFlood flood-opacity="0" result="BackgroundImageFix"/>
<feBlend mode="normal" in="SourceGraphic" in2="BackgroundImageFix" result="shape"/>
<feGaussianBlur stdDeviation="35.7036" result="effect1_foregroundBlur_4166_13183"/>
</filter>
<filter id="filter10_f_4166_13183" x="141.5" y="35.0493" width="189.508" height="491.541" filterUnits="userSpaceOnUse" color-interpolation-filters="sRGB">
<feFlood flood-opacity="0" result="BackgroundImageFix"/>
<feBlend mode="normal" in="SourceGraphic" in2="BackgroundImageFix" result="shape"/>
<feGaussianBlur stdDeviation="17.8518" result="effect1_foregroundBlur_4166_13183"/>
</filter>
<filter id="filter11_f_4166_13183" x="114.17" y="34.5102" width="135.769" height="402.176" filterUnits="userSpaceOnUse" color-interpolation-filters="sRGB">
<feFlood flood-opacity="0" result="BackgroundImageFix"/>
<feBlend mode="normal" in="SourceGraphic" in2="BackgroundImageFix" result="shape"/>
<feGaussianBlur stdDeviation="17.8518" result="effect1_foregroundBlur_4166_13183"/>
</filter>
<filter id="filter12_f_4166_13183" x="206.021" y="125.684" width="144.825" height="380.986" filterUnits="userSpaceOnUse" color-interpolation-filters="sRGB">
<feFlood flood-opacity="0" result="BackgroundImageFix"/>
<feBlend mode="normal" in="SourceGraphic" in2="BackgroundImageFix" result="shape"/>
<feGaussianBlur stdDeviation="12.4963" result="effect1_foregroundBlur_4166_13183"/>
</filter>
<filter id="filter13_f_4166_13183" x="225.84" y="190.157" width="198.566" height="407.542" filterUnits="userSpaceOnUse" color-interpolation-filters="sRGB">
<feFlood flood-opacity="0" result="BackgroundImageFix"/>
<feBlend mode="normal" in="SourceGraphic" in2="BackgroundImageFix" result="shape"/>
<feGaussianBlur stdDeviation="21.4222" result="effect1_foregroundBlur_4166_13183"/>
</filter>
<linearGradient id="paint0_linear_4166_13183" x1="178.333" y1="308.551" x2="225.324" y2="414.088" gradientUnits="userSpaceOnUse">
<stop stop-color="white"/>
<stop offset="1" stop-color="#149E85"/>
</linearGradient>
<linearGradient id="paint1_linear_4166_13183" x1="114.693" y1="367.833" x2="-115.656" y2="297.11" gradientUnits="userSpaceOnUse">
<stop stop-color="white"/>
<stop offset="1" stop-color="white" stop-opacity="0"/>
</linearGradient>
<linearGradient id="paint2_linear_4166_13183" x1="179" y1="311.189" x2="226.544" y2="417.458" gradientUnits="userSpaceOnUse">
<stop stop-color="white"/>
<stop offset="1" stop-color="#149E85"/>
</linearGradient>
<linearGradient id="paint3_linear_4166_13183" x1="246.63" y1="367.833" x2="487.683" y2="289.602" gradientUnits="userSpaceOnUse">
<stop stop-color="white"/>
<stop offset="1" stop-color="white" stop-opacity="0"/>
</linearGradient>
</defs>
</svg>
