<svg width="375" height="504" viewBox="0 0 375 504" fill="none" xmlns="http://www.w3.org/2000/svg">
<g clip-path="url(#clip0_4166_14093)">
<g filter="url(#filter0_f_4166_14093)">
<ellipse cx="164.486" cy="166.514" rx="164.486" ry="166.514" transform="matrix(0.621948 -0.783059 -0.783059 -0.621948 587.803 422)" fill="url(#paint0_linear_4166_14093)"/>
</g>
<g filter="url(#filter1_f_4166_14093)">
<ellipse cx="111.23" cy="112.508" rx="111.23" ry="112.508" transform="matrix(-1 0 0 1 603.364 -74.9141)" fill="#2AEAC7"/>
</g>
<g filter="url(#filter2_f_4166_14093)">
<ellipse cx="90.8619" cy="91.9641" rx="90.8619" ry="91.9641" transform="matrix(-1 0 0 1 635.194 -78)" fill="#2AEAC7"/>
</g>
<g filter="url(#filter3_f_4166_14093)">
<path d="M349.306 264.469C314.576 177.816 369.447 71.1377 526.537 41.6707C380.779 101.135 379.234 199.706 392.775 273.166L349.306 264.469Z" fill="white" fill-opacity="0.85"/>
</g>
<g filter="url(#filter4_f_4166_14093)">
<path d="M314.165 223.63C275.836 170.167 295.458 87.9404 398.01 41.3749C308.255 106.564 323.763 174.281 345.375 222.276L314.165 223.63Z" fill="white" fill-opacity="0.85"/>
</g>
<g filter="url(#filter5_f_4166_14093)">
<path d="M432.042 260.748C405.355 191.619 449.989 107.504 574.972 85.709C458.679 131.428 456.453 209.649 466.456 268.092L432.042 260.748Z" fill="url(#paint1_linear_4166_14093)" fill-opacity="0.7"/>
</g>
<g filter="url(#filter6_f_4166_14093)">
<path d="M485.568 271.004C474.63 197.715 536.564 125.384 663.29 131.423C539.817 150.628 642.889 249.196 639.88 308.412L485.568 271.004Z" fill="white" fill-opacity="0.8"/>
</g>
<g filter="url(#filter7_f_4166_14093)">
<ellipse cx="-164.308" cy="166.635" rx="164.486" ry="166.514" transform="rotate(-128.459 -164.308 166.635)" fill="url(#paint2_linear_4166_14093)"/>
</g>
<g filter="url(#filter8_f_4166_14093)">
<ellipse cx="-96.7282" cy="14.5943" rx="111.23" ry="112.508" fill="#2AEAC7"/>
</g>
<g filter="url(#filter9_f_4166_14093)">
<ellipse cx="-148.926" cy="-9.0359" rx="90.8619" ry="91.9641" fill="#2AEAC7"/>
</g>
<g filter="url(#filter10_f_4166_14093)">
<path d="M46.1002 241.469C80.8305 154.816 25.9592 48.1377 -131.131 18.6707C14.627 78.1349 16.1722 176.706 2.63116 250.166L46.1002 241.469Z" fill="white" fill-opacity="0.85"/>
</g>
<g filter="url(#filter11_f_4166_14093)">
<path d="M81.2408 200.63C119.571 147.167 99.948 64.9404 -2.60332 18.3749C87.1517 83.5642 71.6436 151.281 50.0315 199.276L81.2408 200.63Z" fill="white" fill-opacity="0.85"/>
</g>
<g filter="url(#filter12_f_4166_14093)">
<path d="M-36.6358 237.748C-9.94897 168.619 -54.583 84.5038 -179.566 62.709C-63.2732 108.428 -61.0468 186.649 -71.0493 245.092L-36.6358 237.748Z" fill="url(#paint3_linear_4166_14093)" fill-opacity="0.7"/>
</g>
<g filter="url(#filter13_f_4166_14093)">
<path d="M-90.1618 248.004C-79.2239 174.715 -141.158 102.384 -267.883 108.423C-144.411 127.628 -247.482 226.196 -244.474 285.412L-90.1618 248.004Z" fill="white" fill-opacity="0.8"/>
</g>
</g>
<defs>
<filter id="filter0_f_4166_14093" x="37.5096" y="-332.11" width="1044.41" height="1043.49" filterUnits="userSpaceOnUse" color-interpolation-filters="sRGB">
<feFlood flood-opacity="0" result="BackgroundImageFix"/>
<feBlend mode="normal" in="SourceGraphic" in2="BackgroundImageFix" result="shape"/>
<feGaussianBlur stdDeviation="178.232" result="effect1_foregroundBlur_4166_14093"/>
</filter>
<filter id="filter1_f_4166_14093" x="24.4393" y="-431.379" width="935.39" height="937.947" filterUnits="userSpaceOnUse" color-interpolation-filters="sRGB">
<feFlood flood-opacity="0" result="BackgroundImageFix"/>
<feBlend mode="normal" in="SourceGraphic" in2="BackgroundImageFix" result="shape"/>
<feGaussianBlur stdDeviation="178.232" result="effect1_foregroundBlur_4166_14093"/>
</filter>
<filter id="filter2_f_4166_14093" x="97.0057" y="-434.465" width="894.654" height="896.858" filterUnits="userSpaceOnUse" color-interpolation-filters="sRGB">
<feFlood flood-opacity="0" result="BackgroundImageFix"/>
<feBlend mode="normal" in="SourceGraphic" in2="BackgroundImageFix" result="shape"/>
<feGaussianBlur stdDeviation="178.232" result="effect1_foregroundBlur_4166_14093"/>
</filter>
<filter id="filter3_f_4166_14093" x="161.067" y="-136.562" width="543.702" height="587.96" filterUnits="userSpaceOnUse" color-interpolation-filters="sRGB">
<feFlood flood-opacity="0" result="BackgroundImageFix"/>
<feBlend mode="normal" in="SourceGraphic" in2="BackgroundImageFix" result="shape"/>
<feGaussianBlur stdDeviation="89.1162" result="effect1_foregroundBlur_4166_14093"/>
</filter>
<filter id="filter4_f_4166_14093" x="117.738" y="-136.857" width="458.504" height="538.72" filterUnits="userSpaceOnUse" color-interpolation-filters="sRGB">
<feFlood flood-opacity="0" result="BackgroundImageFix"/>
<feBlend mode="normal" in="SourceGraphic" in2="BackgroundImageFix" result="shape"/>
<feGaussianBlur stdDeviation="89.1162" result="effect1_foregroundBlur_4166_14093"/>
</filter>
<filter id="filter5_f_4166_14093" x="299.849" y="-39.0538" width="399.887" height="431.909" filterUnits="userSpaceOnUse" color-interpolation-filters="sRGB">
<feFlood flood-opacity="0" result="BackgroundImageFix"/>
<feBlend mode="normal" in="SourceGraphic" in2="BackgroundImageFix" result="shape"/>
<feGaussianBlur stdDeviation="62.3814" result="effect1_foregroundBlur_4166_14093"/>
</filter>
<filter id="filter6_f_4166_14093" x="270.454" y="-82.8092" width="606.714" height="605.1" filterUnits="userSpaceOnUse" color-interpolation-filters="sRGB">
<feFlood flood-opacity="0" result="BackgroundImageFix"/>
<feBlend mode="normal" in="SourceGraphic" in2="BackgroundImageFix" result="shape"/>
<feGaussianBlur stdDeviation="106.94" result="effect1_foregroundBlur_4166_14093"/>
</filter>
<filter id="filter7_f_4166_14093" x="-686.513" y="-355.11" width="1044.41" height="1043.49" filterUnits="userSpaceOnUse" color-interpolation-filters="sRGB">
<feFlood flood-opacity="0" result="BackgroundImageFix"/>
<feBlend mode="normal" in="SourceGraphic" in2="BackgroundImageFix" result="shape"/>
<feGaussianBlur stdDeviation="178.232" result="effect1_foregroundBlur_4166_14093"/>
</filter>
<filter id="filter8_f_4166_14093" x="-564.423" y="-454.379" width="935.39" height="937.947" filterUnits="userSpaceOnUse" color-interpolation-filters="sRGB">
<feFlood flood-opacity="0" result="BackgroundImageFix"/>
<feBlend mode="normal" in="SourceGraphic" in2="BackgroundImageFix" result="shape"/>
<feGaussianBlur stdDeviation="178.232" result="effect1_foregroundBlur_4166_14093"/>
</filter>
<filter id="filter9_f_4166_14093" x="-596.253" y="-457.465" width="894.654" height="896.858" filterUnits="userSpaceOnUse" color-interpolation-filters="sRGB">
<feFlood flood-opacity="0" result="BackgroundImageFix"/>
<feBlend mode="normal" in="SourceGraphic" in2="BackgroundImageFix" result="shape"/>
<feGaussianBlur stdDeviation="178.232" result="effect1_foregroundBlur_4166_14093"/>
</filter>
<filter id="filter10_f_4166_14093" x="-309.363" y="-159.562" width="543.702" height="587.96" filterUnits="userSpaceOnUse" color-interpolation-filters="sRGB">
<feFlood flood-opacity="0" result="BackgroundImageFix"/>
<feBlend mode="normal" in="SourceGraphic" in2="BackgroundImageFix" result="shape"/>
<feGaussianBlur stdDeviation="89.1162" result="effect1_foregroundBlur_4166_14093"/>
</filter>
<filter id="filter11_f_4166_14093" x="-180.836" y="-159.857" width="458.504" height="538.72" filterUnits="userSpaceOnUse" color-interpolation-filters="sRGB">
<feFlood flood-opacity="0" result="BackgroundImageFix"/>
<feBlend mode="normal" in="SourceGraphic" in2="BackgroundImageFix" result="shape"/>
<feGaussianBlur stdDeviation="89.1162" result="effect1_foregroundBlur_4166_14093"/>
</filter>
<filter id="filter12_f_4166_14093" x="-304.329" y="-62.0538" width="399.887" height="431.909" filterUnits="userSpaceOnUse" color-interpolation-filters="sRGB">
<feFlood flood-opacity="0" result="BackgroundImageFix"/>
<feBlend mode="normal" in="SourceGraphic" in2="BackgroundImageFix" result="shape"/>
<feGaussianBlur stdDeviation="62.3814" result="effect1_foregroundBlur_4166_14093"/>
</filter>
<filter id="filter13_f_4166_14093" x="-481.762" y="-105.809" width="606.714" height="605.1" filterUnits="userSpaceOnUse" color-interpolation-filters="sRGB">
<feFlood flood-opacity="0" result="BackgroundImageFix"/>
<feBlend mode="normal" in="SourceGraphic" in2="BackgroundImageFix" result="shape"/>
<feGaussianBlur stdDeviation="106.94" result="effect1_foregroundBlur_4166_14093"/>
</filter>
<linearGradient id="paint0_linear_4166_14093" x1="121.414" y1="252.571" x2="164.486" y2="333.028" gradientUnits="userSpaceOnUse">
<stop stop-color="white"/>
<stop offset="1" stop-color="#149E85"/>
</linearGradient>
<linearGradient id="paint1_linear_4166_14093" x1="449.369" y1="205.363" x2="675.022" y2="-5.35301" gradientUnits="userSpaceOnUse">
<stop stop-color="white"/>
<stop offset="1" stop-color="white" stop-opacity="0"/>
</linearGradient>
<linearGradient id="paint2_linear_4166_14093" x1="-207.38" y1="252.691" x2="-164.308" y2="333.149" gradientUnits="userSpaceOnUse">
<stop stop-color="white"/>
<stop offset="1" stop-color="#149E85"/>
</linearGradient>
<linearGradient id="paint3_linear_4166_14093" x1="-53.9629" y1="182.363" x2="-279.615" y2="-28.353" gradientUnits="userSpaceOnUse">
<stop stop-color="white"/>
<stop offset="1" stop-color="white" stop-opacity="0"/>
</linearGradient>
<clipPath id="clip0_4166_14093">
<rect width="384" height="774" fill="white" transform="translate(-2)"/>
</clipPath>
</defs>
</svg>
