<svg width="41" height="30" viewBox="0 0 41 30" fill="none" xmlns="http://www.w3.org/2000/svg">
<path d="M30.955 17.9736C31.4004 17.9736 31.8277 17.9057 32.2531 17.8438C32.1153 18.3071 31.9735 18.7784 31.7459 19.2018C31.5182 19.8169 31.1627 20.3501 30.8092 20.8873C30.5137 21.4684 29.9924 21.8618 29.609 22.3591C29.2076 22.8424 28.6604 23.1639 28.227 23.5653C27.8017 23.9847 27.2445 24.1944 26.8012 24.49C26.3378 24.7556 25.9344 25.0491 25.5031 25.1889L24.4267 25.6323L23.48 26.0257L24.4486 29.896L25.6409 29.6084C26.0223 29.5126 26.4876 29.4007 27.0168 29.2669C27.558 29.1671 28.1352 28.8935 28.7782 28.6438C29.4133 28.3603 30.1482 28.1685 30.8312 27.7132C31.5182 27.2779 32.311 26.9144 33.01 26.3313C33.687 25.7301 34.5038 25.2089 35.1069 24.444C35.7659 23.7291 36.417 22.9782 36.9222 22.1235C37.5074 21.3087 37.9048 20.414 38.3242 19.5293C38.7036 18.6446 39.0092 17.7399 39.2588 16.8612C39.7321 15.0998 39.9438 13.4263 40.0257 11.9944C40.0936 10.5605 40.0536 9.36825 39.9697 8.50552C39.9398 8.09812 39.8839 7.70271 39.8439 7.42911L39.794 7.09361L39.7421 7.10559C39.3869 5.44637 38.5692 3.92162 37.3836 2.70771C36.1981 1.4938 34.693 0.640333 33.0427 0.246048C31.3923 -0.148237 29.664 -0.067234 28.0578 0.479687C26.4515 1.02661 25.0329 2.0171 23.9661 3.33658C22.8993 4.65606 22.2278 6.25061 22.0294 7.93577C21.8309 9.62094 22.1136 11.3279 22.8447 12.8591C23.5758 14.3903 24.7255 15.6832 26.1608 16.5883C27.596 17.4934 29.2582 17.9737 30.955 17.9736ZM8.98742 17.9736C9.43276 17.9736 9.86013 17.9057 10.2855 17.8438C10.1477 18.3071 10.0059 18.7784 9.77825 19.2018C9.55058 19.8169 9.19511 20.3501 8.84163 20.8873C8.54606 21.4684 8.02483 21.8618 7.6414 22.3591C7.23999 22.8424 6.6928 23.1639 6.25944 23.5653C5.83406 23.9847 5.27689 24.1944 4.83354 24.49C4.37022 24.7556 3.96682 25.0491 3.53545 25.1889L2.45904 25.6323L1.51244 26.0257L2.48101 29.896L3.67325 29.6084C4.05469 29.5126 4.52 29.4007 5.04922 29.2669C5.59042 29.1671 6.16757 28.8935 6.81062 28.6438C7.44369 28.3583 8.1806 28.1685 8.8636 27.7112C9.55058 27.2759 10.3434 26.9124 11.0424 26.3293C11.7194 25.7281 12.5362 25.2069 13.1393 24.444C13.7983 23.7291 14.4494 22.9782 14.9546 22.1235C15.5398 21.3087 15.9372 20.414 16.3566 19.5293C16.736 18.6446 17.0415 17.7399 17.2912 16.8612C17.7645 15.0998 17.9762 13.4263 18.058 11.9944C18.1259 10.5605 18.086 9.36825 18.0021 8.50552C17.9722 8.09812 17.9163 7.70271 17.8763 7.42911L17.8264 7.09361L17.7745 7.10559C17.4193 5.44637 16.6016 3.92162 15.416 2.70771C14.2304 1.4938 12.7254 0.640333 11.0751 0.246048C9.42469 -0.148237 7.69643 -0.067234 6.09018 0.479687C4.48393 1.02661 3.06534 2.0171 1.9985 3.33658C0.931671 4.65606 0.260185 6.25061 0.0617371 7.93577C-0.136711 9.62094 0.145977 11.3279 0.877106 12.8591C1.60823 14.3903 2.75792 15.6832 4.19318 16.5883C5.62844 17.4934 7.29061 17.9737 8.98742 17.9736Z" fill="#FFC39E"/>
</svg>
