<svg width="32" height="32" viewBox="0 0 32 32" fill="none" xmlns="http://www.w3.org/2000/svg">
<path d="M24.8215 26.667H25.4751C27.0083 26.667 28.2277 25.9685 29.3226 24.9917C32.1041 22.5104 25.5656 20.0003 23.3334 20.0003M20.6667 6.75868C20.9695 6.69863 21.2839 6.66699 21.6064 6.66699C24.033 6.66699 26.0001 8.45785 26.0001 10.667C26.0001 12.8761 24.033 14.667 21.6064 14.667C21.2839 14.667 20.9695 14.6354 20.6667 14.5753" stroke="#149E85" stroke-width="2" stroke-linecap="round"/>
<path d="M5.97508 21.4819C4.40312 22.3243 0.281516 24.0444 2.79185 26.1969C4.01812 27.2483 5.38388 28.0003 7.10096 28.0003H16.899C18.6161 28.0003 19.9819 27.2483 21.2082 26.1969C23.7185 24.0444 19.5969 22.3243 18.0249 21.4819C14.3387 19.5065 9.66132 19.5065 5.97508 21.4819Z" stroke="#272726" stroke-width="2"/>
<path d="M17.3333 10.0003C17.3333 12.9458 14.9455 15.3337 12 15.3337C9.05448 15.3337 6.66667 12.9458 6.66667 10.0003C6.66667 7.05481 9.05448 4.66699 12 4.66699C14.9455 4.66699 17.3333 7.05481 17.3333 10.0003Z" stroke="#272726" stroke-width="2"/>
</svg>
